<svg width="1920" height="1080" viewBox="0 0 1920 1080" fill="none" xmlns="http://www.w3.org/2000/svg">
<rect width="1920" height="1080" fill="url(#paint0_linear_370:2)"/>
<mask id="mask0_370:2" style="mask-type:alpha" maskUnits="userSpaceOnUse" x="0" y="336" width="566" height="744">
<rect y="336" width="566" height="744" fill="#C4C4C4"/>
</mask>
<g mask="url(#mask0_370:2)">
<path d="M52.2281 892.127C52.3098 892.781 52.3915 893.435 52.5549 894.017V894.09C52.2281 892.708 52.0647 891.254 52.0647 889.655C52.0647 890.454 52.1464 891.181 52.1464 891.908C52.2281 891.981 52.2281 892.054 52.2281 892.127Z" stroke="white" stroke-width="3" stroke-miterlimit="10" stroke-linecap="round" stroke-linejoin="round"/>
<path d="M55.9863 874.387C55.9863 874.46 55.9863 874.46 55.9863 874.387C56.3948 873.587 56.885 872.787 57.3752 871.915L57.2118 871.988C56.8033 872.86 56.3948 873.587 55.9863 874.387Z" stroke="white" stroke-width="3" stroke-miterlimit="10" stroke-linecap="round" stroke-linejoin="round"/>
<path d="M219.958 801.61C219.958 801.683 219.958 801.755 219.958 801.828C219.877 802.628 219.877 803.428 219.877 804.227C219.877 802.628 220.04 800.956 220.367 799.211C220.122 800.01 220.04 800.81 219.958 801.61Z" stroke="white" stroke-width="3" stroke-miterlimit="10" stroke-linecap="round" stroke-linejoin="round"/>
<path d="M220.857 796.52C220.857 796.593 220.857 796.666 220.775 796.738C220.53 797.538 220.367 798.338 220.203 799.138C220.53 797.465 220.939 795.793 221.511 794.048C221.511 794.048 221.511 794.048 221.511 794.121C221.347 794.921 221.102 795.721 220.857 796.52Z" stroke="white" stroke-width="3" stroke-miterlimit="10" stroke-linecap="round" stroke-linejoin="round"/>
<path d="M222.654 791.432C222.654 791.504 222.573 791.504 222.573 791.577C222.246 792.377 221.919 793.176 221.674 794.049C222.246 792.377 222.981 790.704 223.798 789.032C223.798 789.032 223.798 789.032 223.798 789.105C223.308 789.832 222.981 790.632 222.654 791.432Z" stroke="white" stroke-width="3" stroke-miterlimit="10" stroke-linecap="round" stroke-linejoin="round"/>
<path d="M225.024 786.56C224.615 787.36 224.125 788.159 223.798 788.959C224.37 787.796 225.105 786.633 225.759 785.542L225.677 785.615C225.514 785.906 225.35 786.124 225.187 786.415C225.105 786.415 225.024 786.487 225.024 786.56Z" stroke="white" stroke-width="3" stroke-miterlimit="10" stroke-linecap="round" stroke-linejoin="round"/>
<path d="M220.857 810.48C220.857 810.552 220.939 810.698 220.939 810.771C221.102 811.279 221.347 811.788 221.592 812.225C221.592 812.297 221.674 812.297 221.674 812.37C221.102 811.28 220.693 810.043 220.367 808.735C220.367 808.735 220.367 808.735 220.367 808.807C220.448 809.316 220.612 809.898 220.857 810.48Z" stroke="white" stroke-width="3" stroke-miterlimit="10" stroke-linecap="round" stroke-linejoin="round"/>
<path d="M54.9241 876.931C54.9241 877.004 54.8425 877.004 54.8425 877.076C54.5157 877.876 54.1889 878.676 53.9438 879.548C54.5157 877.876 55.251 876.204 56.068 874.532C56.068 874.532 56.068 874.532 56.068 874.605C55.5778 875.332 55.2509 876.131 54.9241 876.931Z" stroke="white" stroke-width="3" stroke-miterlimit="10" stroke-linecap="round" stroke-linejoin="round"/>
<path d="M53.1268 882.021C53.1268 882.093 53.1268 882.166 53.0451 882.239C52.8 883.038 52.6366 883.838 52.4732 884.638C52.8 882.966 53.2085 881.294 53.7804 879.549C53.7804 879.549 53.7804 879.549 53.7804 879.621C53.617 880.421 53.3719 881.221 53.1268 882.021Z" stroke="white" stroke-width="3" stroke-miterlimit="10" stroke-linecap="round" stroke-linejoin="round"/>
<path d="M52.2281 887.11C52.2281 887.183 52.2281 887.255 52.2281 887.328C52.1464 888.128 52.1464 888.928 52.1464 889.727C52.1464 888.128 52.3098 886.456 52.6366 884.711C52.3915 885.51 52.3098 886.31 52.2281 887.11Z" stroke="white" stroke-width="3" stroke-miterlimit="10" stroke-linecap="round" stroke-linejoin="round"/>
<path d="M223.471 814.842C222.818 814.115 222.246 813.388 221.756 812.443C222.001 812.952 222.327 813.461 222.654 813.897C222.818 814.188 223.144 814.479 223.471 814.842Z" stroke="white" stroke-width="3" stroke-miterlimit="10" stroke-linecap="round" stroke-linejoin="round"/>
<path d="M219.958 806.627C220.04 807.281 220.122 807.935 220.285 808.517V808.59C219.958 807.208 219.795 805.754 219.795 804.155C219.795 804.954 219.877 805.681 219.877 806.408C219.958 806.481 219.958 806.554 219.958 806.627Z" stroke="white" stroke-width="3" stroke-miterlimit="10" stroke-linecap="round" stroke-linejoin="round"/>
<path d="M162.033 574.918L178.455 583.352C177.964 570.629 177.392 561.541 177.392 561.541L181.886 509.339L162.033 499.161V574.918V574.918Z" stroke="white" stroke-width="3" stroke-miterlimit="10" stroke-linecap="round" stroke-linejoin="round"/>
<path d="M186.298 400.429C185.236 402.901 182.213 406.027 178.128 409.299L186.053 413.37C186.134 409.008 186.216 404.645 186.379 400.21C186.298 400.283 186.298 400.356 186.298 400.429Z" stroke="white" stroke-width="3" stroke-miterlimit="10" stroke-linecap="round" stroke-linejoin="round"/>
<path d="M134.418 442.233L174.451 462.372L174.533 472.769L174.451 454.811L136.461 435.181C135.726 435.617 135.072 435.908 134.418 436.272V442.233Z" stroke="white" stroke-width="3" stroke-miterlimit="10" stroke-linecap="round" stroke-linejoin="round"/>
<path d="M113.748 423.476L107.539 420.277L113.666 423.476H113.748Z" stroke="white" stroke-width="3" stroke-miterlimit="10" stroke-linecap="round" stroke-linejoin="round"/>
<path d="M118.487 425.948L118.405 425.875L115.627 424.494L118.487 425.948Z" stroke="white" stroke-width="3" stroke-miterlimit="10" stroke-linecap="round" stroke-linejoin="round"/>
<path d="M55.7412 900.342C55.0876 899.615 54.5157 898.888 54.0255 897.943C54.2706 898.452 54.5974 898.961 54.9242 899.397C55.0876 899.688 55.4144 899.979 55.7412 900.342Z" stroke="white" stroke-width="3" stroke-miterlimit="10" stroke-linecap="round" stroke-linejoin="round"/>
<path d="M53.1268 895.98C53.1268 896.053 53.2085 896.198 53.2085 896.271C53.3719 896.78 53.617 897.289 53.8621 897.725C53.8621 897.798 53.9438 897.798 53.9438 897.87C53.3719 896.78 52.9634 895.544 52.6366 894.235C52.7183 894.817 52.8817 895.398 53.1268 895.98Z" stroke="white" stroke-width="3" stroke-miterlimit="10" stroke-linecap="round" stroke-linejoin="round"/>
<path d="M355.907 613.379C355.09 600.801 342.59 597.602 342.59 597.602C341.283 601.456 334.665 616.942 313.014 613.161C313.586 620.868 299.697 664.563 299.697 664.563L313.26 666.235C356.397 664.563 349.208 624.939 349.208 624.939C357.296 621.885 355.907 613.379 355.907 613.379Z" stroke="white" stroke-width="3" stroke-miterlimit="10" stroke-linecap="round" stroke-linejoin="round"/>
<path d="M342.59 597.602C342.753 597.093 342.835 596.73 342.835 596.73C331.724 572.81 295.612 540.965 295.612 540.965C289.893 475.314 274.044 454.666 274.044 454.666C272.083 455.756 269.959 456.411 267.753 456.847C258.929 466.007 246.838 475.096 230.252 482.729L229.027 487.673L261.952 555.434L312.933 613.161C334.665 617.014 341.364 601.455 342.59 597.602Z" stroke="white" stroke-width="3" stroke-miterlimit="10" stroke-linecap="round" stroke-linejoin="round"/>
<path d="M227.638 455.611C225.187 455.393 222.736 455.175 220.285 454.884V462.809L227.638 455.611Z" stroke="white" stroke-width="3" stroke-miterlimit="10" stroke-linecap="round" stroke-linejoin="round"/>
<path d="M188.667 473.351V480.112V473.351Z" stroke="white" stroke-width="3" stroke-miterlimit="10" stroke-linecap="round" stroke-linejoin="round"/>
<path d="M227.066 484.329C227.066 484.329 226.249 484.402 224.942 484.402C225.514 485.129 225.922 485.928 226.249 486.801C227.556 490.436 225.677 494.507 222.899 497.416C220.122 500.324 216.445 502.505 213.341 505.195C210.236 507.885 207.376 511.157 207.213 515.01C203.455 513.12 199.125 512.611 194.958 511.593C194.141 511.375 193.406 511.157 192.589 510.939L188.831 512.902L181.886 509.339L177.393 561.541C177.393 561.541 177.964 570.629 178.455 583.352L216.854 603.055C216.854 589.532 215.546 574.409 211.87 558.633L229.19 487.746L230.416 482.802C229.19 483.311 228.21 483.82 227.066 484.329Z" stroke="white" stroke-width="3" stroke-miterlimit="10" stroke-linecap="round" stroke-linejoin="round"/>
<path d="M134.418 434.236V436.344C135.072 435.981 135.726 435.69 136.461 435.254L118.405 425.875C118.405 425.875 118.405 425.875 118.487 425.948L134.418 434.236Z" stroke="white" stroke-width="3" stroke-miterlimit="10" stroke-linecap="round" stroke-linejoin="round"/>
<path d="M122.735 413.661L140.954 423.112L122.735 413.661Z" stroke="white" stroke-width="3" stroke-miterlimit="10" stroke-linecap="round" stroke-linejoin="round"/>
<path d="M186.298 400.429C186.298 400.356 186.298 400.356 186.379 400.283C186.625 392.504 186.951 384.724 187.442 376.872C179.68 375.2 171.183 372.001 164.321 368.439L162.196 376.509C162.196 376.509 154.19 383.561 144.794 392.213L178.128 409.298C182.131 406.027 185.236 402.901 186.298 400.429Z" stroke="white" stroke-width="3" stroke-miterlimit="10" stroke-linecap="round" stroke-linejoin="round"/>
<path d="M267.753 456.847C269.959 456.41 272.083 455.756 274.044 454.666C273.635 453.502 273.308 452.266 272.9 451.03C271.347 452.993 269.632 454.956 267.753 456.847Z" stroke="white" stroke-width="3" stroke-miterlimit="10" stroke-linecap="round" stroke-linejoin="round"/>
<path d="M186.379 400.283C186.216 404.646 186.053 409.008 186.053 413.443L220.367 431.037V454.884C222.818 455.175 225.269 455.32 227.72 455.611L255.171 428.565L260.563 412.207C260.563 412.207 279.354 413.516 291.446 407.19C295.122 395.121 297.655 382.834 298.962 370.402C300.106 359.642 300.269 348.227 294.55 338.703C289.485 330.197 280.171 324.089 270.204 320.309C261.298 316.964 251.821 315.292 242.344 313.765V316.892C242.344 316.892 228.618 330.342 211.87 324.162V320.454L211.788 317.255C210.644 316.964 209.582 316.674 208.52 316.165C206.968 315.438 205.661 314.42 204.435 313.256C197.246 315.51 190.71 319.364 185.644 324.453C177.147 332.959 173.062 344.228 169.141 355.061C167.589 359.569 165.954 364.004 164.402 368.512C171.265 372.074 179.762 375.273 187.523 376.945C186.951 384.725 186.625 392.504 186.379 400.283Z" stroke="white" stroke-width="3" stroke-miterlimit="10" stroke-linecap="round" stroke-linejoin="round"/>
<path d="M260.481 412.134L255.089 428.492L227.638 455.538L220.285 462.736V480.476C222.082 481.494 223.716 482.73 224.942 484.256C226.167 484.256 227.066 484.184 227.066 484.184C228.21 483.675 229.19 483.166 230.334 482.657C246.919 475.023 259.011 465.935 267.834 456.774C269.713 454.811 271.429 452.921 272.981 450.958C291.364 428.42 291.446 407.045 291.446 407.045C279.272 413.443 260.481 412.134 260.481 412.134Z" stroke="white" stroke-width="3" stroke-miterlimit="10" stroke-linecap="round" stroke-linejoin="round"/>
<path d="M220.285 480.548V496.325L192.589 510.866C193.324 511.084 194.141 511.375 194.958 511.52C199.125 512.538 203.455 513.047 207.213 514.937C207.458 511.084 210.154 507.74 213.341 505.122C216.527 502.505 220.122 500.324 222.899 497.343C225.677 494.435 227.556 490.363 226.249 486.728C225.922 485.856 225.514 485.056 224.942 484.329C223.798 482.875 222.082 481.639 220.285 480.548Z" stroke="white" stroke-width="3" stroke-miterlimit="10" stroke-linecap="round" stroke-linejoin="round"/>
<path d="M115.627 424.495L113.748 423.476H113.667L115.627 424.495Z" stroke="white" stroke-width="3" stroke-miterlimit="10" stroke-linecap="round" stroke-linejoin="round"/>
<path d="M89.2382 445.578C88.0944 448.631 87.931 452.194 89.7284 455.029C90.6271 456.411 91.9343 457.501 93.4866 458.446V438.307C91.7709 440.634 90.1369 443.106 89.2382 445.578Z" stroke="white" stroke-width="3" stroke-miterlimit="10" stroke-linecap="round" stroke-linejoin="round"/>
<path d="M92.0977 432.927C92.6696 433.581 93.0781 434.163 93.4866 434.817V431.909C92.9964 432.273 92.5062 432.564 92.0977 432.927Z" stroke="white" stroke-width="3" stroke-miterlimit="10" stroke-linecap="round" stroke-linejoin="round"/>
<path d="M149.124 568.302V492.472L136.297 485.856V562.995L137.523 562.341L149.124 568.302Z" stroke="white" stroke-width="3" stroke-miterlimit="10" stroke-linecap="round" stroke-linejoin="round"/>
<path d="M149.124 492.472V568.302L162.033 574.918V499.088L149.124 492.472Z" stroke="white" stroke-width="3" stroke-miterlimit="10" stroke-linecap="round" stroke-linejoin="round"/>
<path d="M166.347 487.419L182.753 476.469L166.347 487.419Z" stroke="white" stroke-width="3" stroke-miterlimit="10" stroke-linecap="round" stroke-linejoin="round"/>
<path d="M188.749 480.112V512.902V480.112Z" stroke="white" stroke-width="3" stroke-miterlimit="10" stroke-linecap="round" stroke-linejoin="round"/>
<path d="M220.285 480.548V462.809V454.884V431.037L188.504 447.686L188.667 473.351V480.112L188.831 512.902L192.589 510.866L220.285 496.398V480.548Z" stroke="white" stroke-width="3" stroke-miterlimit="10" stroke-linecap="round" stroke-linejoin="round"/>
<path d="M162.033 499.088L181.886 509.267L188.83 512.829L188.667 480.112V473.351L188.585 447.614L141.036 423.04L122.817 413.588L93.4866 398.393V431.764V434.672V438.162V458.301V463.754L136.297 485.783L149.206 492.399L162.033 499.088ZM107.539 420.277L113.748 423.476L115.627 424.494L118.405 425.948L136.461 435.327L174.451 454.957L174.533 472.915L174.615 491.163L107.539 456.702V420.277V420.277Z" stroke="white" stroke-width="3" stroke-miterlimit="10" stroke-linecap="round" stroke-linejoin="round"/>
<path d="M188.504 447.687L220.285 431.037L185.971 413.37L178.046 409.299L144.794 392.213L125.513 382.326L93.4049 398.539L122.735 413.661L140.954 423.113L188.504 447.687Z" stroke="white" stroke-width="3" stroke-miterlimit="10" stroke-linecap="round" stroke-linejoin="round"/>
<path d="M107.539 456.629L134.418 442.233V436.344V434.236L118.487 425.948L115.627 424.494L113.666 423.476L107.539 420.277V456.629Z" stroke="white" stroke-width="3" stroke-miterlimit="10" stroke-linecap="round" stroke-linejoin="round"/>
<path d="M174.451 462.445L134.418 442.234L107.539 456.629L174.615 491.091L174.533 472.842L174.451 462.445Z" stroke="white" stroke-width="3" stroke-miterlimit="10" stroke-linecap="round" stroke-linejoin="round"/>
<path d="M55.7412 900.342C55.4144 900.052 55.1693 899.761 54.9242 899.397C54.5974 898.961 54.2706 898.452 54.0255 897.943C54.0255 897.943 54.0255 897.943 54.0255 897.87C54.0255 897.798 53.9438 897.798 53.9438 897.725C53.6987 897.289 53.4536 896.78 53.2902 896.271C53.2902 896.198 53.2085 896.053 53.2085 895.98C53.0451 895.471 52.8817 894.89 52.7183 894.308C52.7183 894.235 52.7183 894.235 52.7183 894.162V894.09C52.5549 893.508 52.4732 892.854 52.3915 892.199C52.3915 892.127 52.3915 892.054 52.3915 891.981C52.3098 891.254 52.3098 890.527 52.3098 889.728C52.3098 888.928 52.3098 888.128 52.3915 887.328C52.3915 887.256 52.3915 887.183 52.3915 887.11C52.4732 886.31 52.5549 885.511 52.7183 884.711C52.8817 883.911 53.0451 883.111 53.2902 882.312C53.2902 882.239 53.2902 882.166 53.3719 882.094C53.617 881.294 53.7804 880.494 54.1072 879.767C54.1072 879.767 54.1072 879.767 54.1072 879.694V879.622C54.3523 878.822 54.6791 878.022 55.0059 877.15C55.0059 877.077 55.0876 877.077 55.0876 877.004C55.4144 876.205 55.7412 875.405 56.1497 874.605C56.1497 874.605 56.1497 874.605 56.1497 874.532C56.1497 874.532 56.1497 874.532 56.1497 874.46C56.5582 873.66 56.9667 872.86 57.3752 872.06L40.7084 880.64V880.712C40.7084 880.858 40.7084 880.93 40.7084 881.076C40.7084 881.148 40.7084 881.221 40.7084 881.294C40.7084 881.439 40.7084 881.585 40.7084 881.73C40.7084 882.094 40.6267 882.384 40.6267 882.748C40.6267 883.039 40.6267 883.402 40.6267 883.693V883.766C40.6267 884.129 40.6267 884.42 40.6267 884.784C40.6267 885.147 40.6267 885.438 40.7084 885.729C40.7084 885.802 40.7084 885.874 40.7084 885.947C40.7084 886.02 40.7084 886.092 40.7084 886.165C40.7084 886.383 40.7084 886.529 40.7901 886.747C40.8718 887.11 40.8718 887.401 40.9535 887.692C40.9535 887.837 41.0352 887.91 41.0352 888.055C41.0352 888.128 41.0352 888.201 41.1169 888.273C41.1169 888.419 41.1986 888.564 41.1986 888.637C41.2803 889.001 41.362 889.364 41.5254 889.655C41.5254 889.728 41.6071 889.8 41.6071 889.946C41.6071 890.018 41.6888 890.164 41.6888 890.236C41.7705 890.382 41.7705 890.6 41.8522 890.745C42.0156 891.109 42.179 891.4 42.3424 891.691C42.3424 891.763 42.4241 891.763 42.4241 891.836C42.4241 891.836 42.4241 891.836 42.4241 891.909C42.6692 892.418 42.996 892.854 43.3228 893.29C43.813 893.944 44.3032 894.526 44.9568 895.035C45.1202 895.18 45.2019 895.253 45.3653 895.398C45.9372 895.907 46.5908 896.344 47.3261 896.707L59.0092 902.742C58.2739 902.378 57.702 901.942 57.0484 901.433C56.885 901.287 56.7216 901.215 56.6399 901.069C56.5582 900.997 56.5582 900.997 56.5582 900.924C56.1497 900.779 55.9046 900.56 55.7412 900.342Z" stroke="white" stroke-width="3" stroke-miterlimit="10" stroke-linecap="round" stroke-linejoin="round"/>
<path d="M55.9863 874.459C55.1693 876.204 54.434 877.876 53.8621 879.549V879.621C53.2902 881.294 52.8817 883.038 52.5549 884.711C52.2281 886.383 52.0647 888.055 52.0647 889.727C52.0647 891.327 52.2281 892.781 52.5549 894.162C52.5549 894.235 52.5549 894.235 52.5549 894.308C52.8817 895.689 53.2902 896.852 53.8621 897.943C53.8621 897.943 53.8621 897.943 53.8621 898.015C54.3523 898.888 54.9242 899.688 55.5778 900.415C55.8229 900.633 55.9863 900.924 56.2314 901.069C60.3981 904.995 67.3426 905.504 75.1041 901.433C87.8493 894.889 98.1435 879.04 98.0618 866.026C98.0618 860.282 95.9376 856.211 92.6696 853.811L57.2935 871.987C56.9667 872.787 56.3948 873.587 55.9863 874.459ZM75.1041 865.808C81.5584 862.463 86.8689 865.153 86.8689 871.769C86.8689 878.385 81.6401 886.456 75.1858 889.8C68.7315 893.144 63.421 890.454 63.421 883.838C63.421 877.222 68.6498 869.152 75.1041 865.808Z" stroke="white" stroke-width="3" stroke-miterlimit="10" stroke-linecap="round" stroke-linejoin="round"/>
<path d="M75.1858 889.8C81.6401 886.456 86.8689 878.386 86.8689 871.77C86.8689 865.154 81.5584 862.463 75.1041 865.808C68.6498 869.152 63.421 877.222 63.421 883.838C63.421 890.454 68.7315 893.145 75.1858 889.8Z" stroke="white" stroke-width="3" stroke-miterlimit="10" stroke-linecap="round" stroke-linejoin="round"/>
<path d="M223.471 814.842C223.144 814.551 222.899 814.26 222.654 813.897C222.327 813.461 222.001 812.952 221.756 812.443C221.756 812.443 221.756 812.443 221.756 812.37C221.756 812.297 221.674 812.297 221.674 812.225C221.429 811.788 221.184 811.279 221.02 810.771C221.02 810.698 220.939 810.552 220.939 810.48C220.775 809.971 220.612 809.389 220.448 808.808C220.448 808.808 220.448 808.808 220.448 808.735C220.448 808.662 220.448 808.662 220.448 808.589V808.517C220.285 807.935 220.203 807.281 220.122 806.626C220.122 806.554 220.122 806.481 220.122 806.408C220.04 805.681 220.04 804.954 220.04 804.155C220.04 803.355 220.04 802.555 220.122 801.755C220.122 801.683 220.122 801.61 220.122 801.537C220.203 800.737 220.285 799.938 220.448 799.138C220.612 798.338 220.775 797.538 221.02 796.739C221.02 796.666 221.02 796.593 221.102 796.521C221.347 795.721 221.51 794.921 221.837 794.194C221.837 794.194 221.837 794.194 221.837 794.121V794.049C222.082 793.249 222.409 792.449 222.736 791.577C222.736 791.504 222.818 791.504 222.818 791.431C223.144 790.632 223.471 789.832 223.88 789.032C223.88 789.032 223.88 789.032 223.88 788.959V788.887C224.288 788.087 224.697 787.287 225.105 786.487C225.105 786.415 225.187 786.342 225.187 786.269C225.35 785.979 225.514 785.76 225.677 785.47L208.52 794.267C208.52 794.558 208.438 794.776 208.438 795.067C208.438 795.212 208.438 795.285 208.438 795.43C208.438 795.503 208.438 795.575 208.438 795.648C208.438 795.794 208.438 795.939 208.438 796.084C208.438 796.448 208.357 796.739 208.357 797.102C208.357 797.393 208.357 797.757 208.357 798.047V798.12C208.357 798.484 208.357 798.774 208.357 799.138C208.357 799.429 208.357 799.792 208.438 800.083C208.438 800.156 208.438 800.229 208.438 800.301C208.438 800.374 208.438 800.447 208.438 800.519C208.438 800.737 208.438 800.883 208.52 801.101C208.602 801.464 208.602 801.755 208.684 802.046C208.684 802.192 208.765 802.264 208.765 802.41C208.765 802.482 208.765 802.555 208.847 802.628C208.847 802.773 208.929 802.919 208.929 802.991C209.01 803.355 209.092 803.718 209.255 804.009C209.255 804.082 209.337 804.155 209.337 804.3C209.337 804.373 209.419 804.518 209.419 804.591C209.501 804.736 209.501 804.954 209.582 805.1C209.746 805.463 209.909 805.754 210.072 806.045C210.072 806.118 210.154 806.118 210.154 806.19C210.154 806.19 210.154 806.19 210.154 806.263C210.399 806.772 210.726 807.208 211.053 807.644C211.543 808.299 212.033 808.88 212.687 809.389C212.85 809.535 212.932 809.607 213.095 809.753C213.667 810.262 214.321 810.698 215.056 811.061L226.739 817.096C226.004 816.732 225.432 816.296 224.778 815.787C224.615 815.642 224.452 815.569 224.37 815.424C224.288 815.351 224.288 815.351 224.288 815.278C223.798 815.278 223.635 815.06 223.471 814.842Z" stroke="white" stroke-width="3" stroke-miterlimit="10" stroke-linecap="round" stroke-linejoin="round"/>
<path d="M223.716 788.959C222.899 790.704 222.164 792.377 221.592 794.049V794.122C221.02 795.794 220.612 797.539 220.285 799.211C219.958 800.883 219.795 802.555 219.795 804.227C219.795 805.827 219.958 807.281 220.285 808.662C220.285 808.735 220.285 808.735 220.285 808.808C220.612 810.189 221.02 811.352 221.592 812.443C221.592 812.443 221.592 812.443 221.592 812.516C222.082 813.388 222.654 814.188 223.308 814.915C223.553 815.133 223.716 815.351 223.962 815.569C228.128 819.495 235.073 820.004 242.834 815.933C255.579 809.389 265.874 793.54 265.792 780.526C265.792 774.491 263.504 770.275 259.828 767.948L225.514 785.542C225.024 786.633 224.288 787.796 223.716 788.959ZM242.834 780.308C249.288 776.963 254.599 779.653 254.599 786.269C254.599 792.886 249.37 800.956 242.916 804.3C236.462 807.644 231.151 804.954 231.151 798.338C231.151 791.722 236.38 783.652 242.834 780.308Z" stroke="white" stroke-width="3" stroke-miterlimit="10" stroke-linecap="round" stroke-linejoin="round"/>
<path d="M242.916 804.3C249.37 800.956 254.599 792.886 254.599 786.27C254.599 779.654 249.288 776.963 242.834 780.308C236.38 783.652 231.151 791.722 231.151 798.339C231.151 804.955 236.462 807.645 242.916 804.3Z" stroke="white" stroke-width="3" stroke-miterlimit="10" stroke-linecap="round" stroke-linejoin="round"/>
<path d="M13.3389 885.511L13.2572 885.438V894.671L40.6267 880.639L57.2935 872.06L57.4569 871.988L92.7513 853.812L208.439 794.412L225.596 785.543H225.677L259.991 767.875L275.678 759.805V750.717L13.3389 885.511Z" stroke="white" stroke-width="3" stroke-miterlimit="10" stroke-linecap="round" stroke-linejoin="round"/>
<path d="M-76.286 840.143L-78.9004 838.834L-108.966 823.566V823.712L-111.58 822.331V822.258L-141.728 806.99V807.063L-144.342 805.754V805.681L-174.408 790.486L-177.022 789.178V789.105L-207.088 773.91L-209.784 772.601L-239.849 757.333V757.406L-242.464 756.097V756.025L-253.248 750.572V759.805L13.2572 894.671V885.438L-76.286 840.143Z" stroke="white" stroke-width="3" stroke-miterlimit="10" stroke-linecap="round" stroke-linejoin="round"/>
<path d="M36.46 798.411L-27.4294 830.765L-36.9883 825.893L-43.5243 829.238V829.31L-13.4587 844.651L77.7185 797.539L47.5712 781.98L36.46 787.796V798.411Z" stroke="white" stroke-width="3" stroke-miterlimit="10" stroke-linecap="round" stroke-linejoin="round"/>
<path d="M266.445 700.043L268.488 701.133L259.174 705.932V707.458L177.964 749.409L176.657 748.754L162.196 756.243V757.261L80.9865 799.211L80.1695 798.775L-10.8443 846.032L13.3389 858.392L292.426 713.565L259.174 696.335V703.823L266.445 700.043Z" stroke="white" stroke-width="3" stroke-miterlimit="10" stroke-linecap="round" stroke-linejoin="round"/>
<path d="M45.2019 780.744L36.46 776.236V785.252L45.2019 780.744Z" stroke="white" stroke-width="3" stroke-miterlimit="10" stroke-linecap="round" stroke-linejoin="round"/>
<path d="M174.451 747.591L162.196 741.266V753.916L174.451 747.591Z" stroke="white" stroke-width="3" stroke-miterlimit="10" stroke-linecap="round" stroke-linejoin="round"/>
<path d="M13.3389 885.511L275.678 750.717L292.426 742.138V713.566L13.3389 858.392V885.511Z" stroke="white" stroke-width="3" stroke-miterlimit="10" stroke-linecap="round" stroke-linejoin="round"/>
<path d="M-10.8443 873.223L-13.4587 871.915V844.651L-43.5243 829.31V856.502L-46.2204 855.193V827.929L-76.2859 812.588V840.143L13.2573 885.438L13.3389 885.51V858.392L-10.8443 846.032V873.223Z" stroke="white" stroke-width="3" stroke-miterlimit="10" stroke-linecap="round" stroke-linejoin="round"/>
<path d="M162.196 753.916V756.243L176.657 748.754L174.451 747.591L162.196 753.916Z" stroke="white" stroke-width="3" stroke-miterlimit="10" stroke-linecap="round" stroke-linejoin="round"/>
<path d="M-13.4587 844.651L-10.8443 846.032L80.1695 798.775L77.7185 797.539L-13.4587 844.651Z" stroke="white" stroke-width="3" stroke-miterlimit="10" stroke-linecap="round" stroke-linejoin="round"/>
<path d="M266.445 700.042L259.174 703.823V705.931L268.488 701.133L266.445 700.042Z" stroke="white" stroke-width="3" stroke-miterlimit="10" stroke-linecap="round" stroke-linejoin="round"/>
<path d="M36.46 787.796L47.5712 781.98L45.2019 780.744L36.46 785.251V787.796Z" stroke="white" stroke-width="3" stroke-miterlimit="10" stroke-linecap="round" stroke-linejoin="round"/>
<path d="M130.578 558.778L8.92707 496.253L-23.0176 512.684L98.0618 575.282L130.578 558.778Z" stroke="white" stroke-width="3" stroke-miterlimit="10" stroke-linecap="round" stroke-linejoin="round"/>
<path d="M49.3686 600.074L81.8852 583.497L-38.9491 520.827L-38.6223 520.681L-71.8742 537.767L49.3686 600.074Z" stroke="white" stroke-width="3" stroke-miterlimit="10" stroke-linecap="round" stroke-linejoin="round"/>
<path d="M33.6005 608.508V615.633L40.545 612.07L49.3686 616.651V600.074L-71.8742 537.766L-71.7925 554.343L33.6005 608.508Z" stroke="white" stroke-width="3" stroke-miterlimit="10" stroke-linecap="round" stroke-linejoin="round"/>
<path d="M98.0618 575.282V582.625L105.578 578.772L130.578 565.903V558.778L98.0618 575.282Z" stroke="white" stroke-width="3" stroke-miterlimit="10" stroke-linecap="round" stroke-linejoin="round"/>
<path d="M56.7216 603.855L81.8852 590.913V583.498L49.3686 600.074V616.651L56.8033 620.431L56.7216 603.855Z" stroke="white" stroke-width="3" stroke-miterlimit="10" stroke-linecap="round" stroke-linejoin="round"/>
<path d="M89.6467 586.915L98.0618 582.625V575.282L81.8852 583.498V590.913L89.6467 586.915Z" stroke="white" stroke-width="3" stroke-miterlimit="10" stroke-linecap="round" stroke-linejoin="round"/>
<path d="M81.8852 583.498L98.0618 575.282L-23.0176 512.684L-38.6223 520.681L-38.9491 520.827L81.8852 583.498Z" stroke="white" stroke-width="3" stroke-miterlimit="10" stroke-linecap="round" stroke-linejoin="round"/>
<path d="M162.033 574.918L149.124 568.302L137.523 562.341L136.297 562.995L130.578 565.903L105.578 578.772L226.658 641.37L259.174 624.793L216.772 603.055L178.455 583.352L162.033 574.918Z" stroke="white" stroke-width="3" stroke-miterlimit="10" stroke-linecap="round" stroke-linejoin="round"/>
<path d="M89.6467 586.914L81.8852 590.913L56.7216 603.855L177.964 666.162L210.481 649.586L89.6467 586.914Z" stroke="white" stroke-width="3" stroke-miterlimit="10" stroke-linecap="round" stroke-linejoin="round"/>
<path d="M56.7216 603.855L56.8033 620.431L162.196 674.596V711.82L167.67 714.656V734.213L162.196 731.378V741.265L174.451 747.591L176.657 748.754L177.964 749.408V666.162L56.7216 603.855Z" stroke="white" stroke-width="3" stroke-miterlimit="10" stroke-linecap="round" stroke-linejoin="round"/>
<path d="M162.196 731.378L167.67 734.213V714.656L162.196 711.821V731.378Z" stroke="white" stroke-width="3" stroke-miterlimit="10" stroke-linecap="round" stroke-linejoin="round"/>
<path d="M226.658 641.37V672.415L210.481 680.703V649.586L177.964 666.162V749.408L259.174 707.458V705.931V703.823V696.334V624.793L226.658 641.37Z" stroke="white" stroke-width="3" stroke-miterlimit="10" stroke-linecap="round" stroke-linejoin="round"/>
<path d="M210.481 649.585V680.703L226.658 672.414V641.37L210.481 649.585Z" stroke="white" stroke-width="3" stroke-miterlimit="10" stroke-linecap="round" stroke-linejoin="round"/>
<path d="M98.0618 582.625L89.6466 586.914L210.481 649.585L226.658 641.37L105.578 578.772L98.0618 582.625Z" stroke="white" stroke-width="3" stroke-miterlimit="10" stroke-linecap="round" stroke-linejoin="round"/>
<path d="M1.08381 625.084L33.6004 608.508L-71.7926 554.343L-88.0509 545.982L-120.077 562.486L1.08381 625.084Z" stroke="white" stroke-width="3" stroke-miterlimit="10" stroke-linecap="round" stroke-linejoin="round"/>
<path d="M1.08392 632.355L8.51865 628.501L33.6006 615.633V608.508L1.08392 625.084V632.355Z" stroke="white" stroke-width="3" stroke-miterlimit="10" stroke-linecap="round" stroke-linejoin="round"/>
<path d="M-15.0927 640.643L-7.33125 636.717L1.08384 632.355V625.084L-15.0927 633.3V640.643Z" stroke="white" stroke-width="3" stroke-miterlimit="10" stroke-linecap="round" stroke-linejoin="round"/>
<path d="M-15.0927 633.3L1.08387 625.084L-120.077 562.486L-135.927 570.629L-15.0927 633.3Z" stroke="white" stroke-width="3" stroke-miterlimit="10" stroke-linecap="round" stroke-linejoin="round"/>
<path d="M-7.33122 636.717L-15.0927 640.643L-40.338 653.584L80.9865 715.892L113.503 699.388L-7.33122 636.717Z" stroke="white" stroke-width="3" stroke-miterlimit="10" stroke-linecap="round" stroke-linejoin="round"/>
<path d="M129.598 691.172L162.196 674.596L56.8033 620.431L49.3686 616.651L40.545 612.07L33.6005 615.633L8.51862 628.501L129.598 691.172Z" stroke="white" stroke-width="3" stroke-miterlimit="10" stroke-linecap="round" stroke-linejoin="round"/>
<path d="M80.9865 715.892L-40.338 653.584L-40.1746 694.081L-32.985 697.789V702.878L-27.5111 700.042L36.46 732.759V747.373V766.93V776.309L45.1202 780.817L47.5712 782.053L77.7185 797.611L80.1695 798.847L80.9048 799.211V715.892H80.9865ZM42.2607 769.329L42.179 749.772L70.6923 764.386V783.943L42.2607 769.329Z" stroke="white" stroke-width="3" stroke-miterlimit="10" stroke-linecap="round" stroke-linejoin="round"/>
<path d="M70.6106 764.458L42.179 749.772L42.2607 769.329L70.6106 784.016V764.458Z" stroke="white" stroke-width="3" stroke-miterlimit="10" stroke-linecap="round" stroke-linejoin="round"/>
<path d="M162.196 741.265V731.378V711.82V674.596L129.598 691.172V722.144L113.503 730.505V699.388L80.9865 715.892V799.211L162.196 757.26V756.242V753.916V741.265Z" stroke="white" stroke-width="3" stroke-miterlimit="10" stroke-linecap="round" stroke-linejoin="round"/>
<path d="M113.503 699.388V730.506L129.598 722.145V691.173L113.503 699.388Z" stroke="white" stroke-width="3" stroke-miterlimit="10" stroke-linecap="round" stroke-linejoin="round"/>
<path d="M8.51861 628.502L1.08388 632.355L-7.33121 636.717L113.503 699.388L129.598 691.173L8.51861 628.502Z" stroke="white" stroke-width="3" stroke-miterlimit="10" stroke-linecap="round" stroke-linejoin="round"/>
<path d="M-64.6029 719.309L-70.7304 722.58L-90.4201 732.759L-27.4294 765.403L-1.36711 752.098L-64.6029 719.309Z" stroke="white" stroke-width="3" stroke-miterlimit="10" stroke-linecap="round" stroke-linejoin="round"/>
<path d="M-58.0669 715.964L-61.4166 717.709L-52.1028 712.911L11.2964 745.627L36.46 732.759L-27.4294 700.042L-32.9033 702.878L-58.0669 715.964Z" stroke="white" stroke-width="3" stroke-miterlimit="10" stroke-linecap="round" stroke-linejoin="round"/>
<path d="M11.2964 745.628V770.056L-1.36709 776.6V752.098L-27.4294 765.403V830.764L36.46 798.411V787.796V785.251V776.236V766.857V747.3V732.759L11.2964 745.628Z" stroke="white" stroke-width="3" stroke-miterlimit="10" stroke-linecap="round" stroke-linejoin="round"/>
<path d="M-1.36707 752.098V776.6L11.2964 770.056V745.628L-1.36707 752.098Z" stroke="white" stroke-width="3" stroke-miterlimit="10" stroke-linecap="round" stroke-linejoin="round"/>
<path d="M-64.6029 719.309L-1.36711 752.098L11.2964 745.628L-52.1028 712.911L-61.4166 717.709L-64.6029 719.309Z" stroke="white" stroke-width="3" stroke-miterlimit="10" stroke-linecap="round" stroke-linejoin="round"/>
</g>
<defs>
<linearGradient id="paint0_linear_370:2" x1="960" y1="1470.97" x2="960" y2="193.247" gradientUnits="userSpaceOnUse">
<stop stop-color="#F1F1F1"/>
<stop offset="1" stop-color="#C4C4C4" stop-opacity="0"/>
</linearGradient>
</defs>
</svg>
