<svg width="500" height="154" viewBox="0 0 500 154" fill="none" xmlns="http://www.w3.org/2000/svg">
<g clip-path="url(#clip0_128_336)">
<path d="M500 76.0559H135.669V81.5427H500V76.0559Z" fill="white"/>
<path d="M79.8666 76.0559H0V81.5427H79.8666V76.0559Z" fill="white"/>
<path d="M110.405 44.388V0L104.919 0V44.388H110.405Z" fill="white"/>
<path d="M110.423 153.206V108.818H104.936V153.206H110.423Z" fill="white"/>
<path d="M132.811 54.9733C122.896 47.7929 107.759 48.1634 107.759 48.1634C107.759 48.1634 92.6397 47.7929 82.7247 54.9733C82.7247 54.9733 78.9492 95.3565 107.759 105.236C136.587 95.3565 132.811 54.9733 132.811 54.9733Z" fill="black"/>
<path d="M107.283 101.073C87.0647 92.7278 86.112 65.788 86.3237 57.7432V57.0375L86.9412 56.6846C95.0743 52.027 106.154 51.9036 107.389 51.9036H108.112C109.347 51.9036 120.462 52.027 128.559 56.6846L129.177 57.0375V57.7432C129.371 65.788 128.436 92.7278 108.2 101.073L107.724 101.267L107.283 101.073Z" fill="url(#paint0_linear_128_336)"/>
<path d="M107.283 101.073C87.0647 92.7278 86.112 65.788 86.3237 57.7432V57.0375L86.9412 56.6846C95.0743 52.027 106.154 51.9036 107.389 51.9036H108.112C109.347 51.9036 120.462 52.027 128.559 56.6846L129.177 57.0375V57.7432C129.371 65.788 128.436 92.7278 108.2 101.073L107.724 101.267L107.283 101.073Z" fill="url(#paint1_linear_128_336)"/>
<path d="M89.9757 79.7607C90.306 80.7404 90.862 81.6288 91.5987 82.3542C92.6573 83.2186 92.6926 83.642 92.6926 83.642C92.6926 83.642 101.302 80.3429 117.656 87.5939C117.656 87.5939 115.716 83.2892 116.492 80.3958C117.268 77.5025 120.973 76.2499 122.526 76.1794C123.769 74.9665 124.753 73.514 125.419 71.9099C125.419 71.9099 118.539 73.3213 115.557 78.1905C115.557 78.1905 117.074 73.1978 126.266 70.8337L127.748 67.1112C127.748 67.1112 114.128 72.2451 113.634 77.6966C113.634 77.6966 112.346 72.845 128.03 65.9292L128.506 62.8065C128.506 62.8065 117.515 66.8113 113.352 73.5683C113.352 73.5683 115.116 67.7993 128.506 61.3951V57.4785C128.506 57.4785 116.721 64.3237 112.522 71.5923C112.514 71.6112 112.501 71.6273 112.483 71.6386C112.466 71.6499 112.446 71.6559 112.425 71.6559C112.405 71.6559 112.385 71.6499 112.367 71.6386C112.35 71.6273 112.337 71.6112 112.328 71.5923C112.301 71.1521 112.18 70.7227 111.973 70.3332C111.766 69.9437 111.478 69.603 111.129 69.3341H109.241C109.241 69.3341 108.094 69.7399 108.218 70.1281C108.218 70.1281 108.359 70.428 109.153 70.0046C109.153 70.0046 109.717 70.0927 109.153 70.4103C109.153 70.4103 106.824 70.1986 106.136 70.9219C106.025 71.0243 105.937 71.1485 105.877 71.2866C105.816 71.4248 105.785 71.5739 105.785 71.7247C105.785 71.8754 105.816 72.0245 105.877 72.1627C105.937 72.3008 106.025 72.425 106.136 72.5274C106.136 72.5274 106.312 72.0863 106.63 72.351C106.869 72.5567 107.158 72.6946 107.469 72.7505C107.779 72.8063 108.099 72.778 108.394 72.6685C108.394 72.6685 109.682 72.0158 108.394 71.0454C108.394 71.0454 108.994 70.7632 109.259 71.6629C109.316 71.9481 109.279 72.2444 109.151 72.5059C109.024 72.7674 108.813 72.9796 108.553 73.1096C108.553 73.1096 107.777 77.7848 110.317 80.3253L112.205 82.7423L114.375 85.6003C114.375 85.6003 108.694 80.5546 97.95 79.8137C95.2945 79.6605 92.6329 79.6428 89.9757 79.7607Z" fill="#FF0000"/>
<path d="M97.5795 77.6084L97.8441 78.8787C97.8441 78.8787 106.895 79.0198 113.122 84.1714C111.908 82.6237 110.568 81.1781 109.118 79.849L108.059 76.5322H106.753V78.2083L105.73 77.6261L105.06 74.6445H103.031V76.4088C103.01 76.4644 102.974 76.5133 102.927 76.5505C102.881 76.5877 102.825 76.6119 102.766 76.6205C102.766 76.6205 101.002 75.9148 97.5795 77.6084Z" fill="#FF0000"/>
<path d="M93.0278 83.9419C93.0278 83.9419 95.8152 85.9002 94.8802 87.7173L117.021 87.8232C117.021 87.8232 103.472 81.5425 93.0278 83.9419Z" fill="white"/>
<path d="M94.7743 88.5642L96.3092 90.9812H100.79L99.379 88.5642H94.7743Z" fill="white"/>
<path d="M100.296 88.5642L101.849 90.9812H105.483L104.089 88.5642H100.296Z" fill="white"/>
<path d="M105.289 88.5642L106.842 90.9812H109.859L108.447 88.5642H105.289Z" fill="white"/>
<path d="M109.576 88.5642L111.129 90.9812H113.087L111.676 88.5642H109.576Z" fill="white"/>
<path d="M113.034 88.5642L114.587 90.9812H116.316L114.904 88.5642H113.034Z" fill="white"/>
<path d="M116.316 88.5642L117.868 90.9812H119.579L118.186 88.5642H116.316Z" fill="white"/>
<path d="M161.127 71.2396H157.193L150.736 65.0648H146.06V71.2396H143.432V55.3615H156.152C157.055 55.2946 157.953 55.5441 158.692 56.0672C158.987 56.3817 159.211 56.7549 159.351 57.1623C159.491 57.5698 159.543 58.0023 159.504 58.4313V61.9597C159.593 62.5818 159.454 63.2149 159.114 63.7431C158.774 64.2714 158.255 64.6592 157.651 64.8355C156.384 65.0212 155.102 65.0862 153.823 65.0295L161.127 71.2396ZM156.875 61.3775V59.0664C156.903 58.8393 156.882 58.609 156.815 58.3903C156.749 58.1715 156.637 57.9691 156.487 57.7961C156.104 57.5216 155.633 57.3963 155.164 57.4433H146.06V63.0006H155.164C155.631 63.0512 156.1 62.9322 156.487 62.6654C156.638 62.4898 156.751 62.2844 156.818 62.0626C156.884 61.8408 156.904 61.6074 156.875 61.3775Z" fill="white"/>
<path d="M184.838 71.2394H169.436V55.3613H184.715V57.4784H172.03V61.9067H179.793V63.9884H172.03V69.0341H184.785L184.838 71.2394Z" fill="white"/>
<path d="M209.873 61.995C209.914 62.4228 209.865 62.8544 209.728 63.2618C209.591 63.6692 209.37 64.0431 209.079 64.3591C208.34 64.8822 207.441 65.1317 206.538 65.0648H196.376V71.2396H193.748V55.3615H206.521C207.424 55.2946 208.322 55.5441 209.061 56.0672C209.356 56.3817 209.58 56.7549 209.72 57.1623C209.86 57.5698 209.912 58.0023 209.873 58.4313V61.995ZM207.191 61.307V59.1017C207.218 58.8704 207.2 58.6359 207.136 58.4119C207.073 58.1878 206.965 57.9785 206.821 57.7961C206.444 57.5528 205.997 57.4412 205.55 57.4786H196.376V63.0006H205.55C206.025 63.0521 206.503 62.9265 206.891 62.6478C207.028 62.4557 207.125 62.2381 207.177 62.0078C207.228 61.7775 207.233 61.5392 207.191 61.307Z" fill="white"/>
<path d="M235.771 67.4818C235.892 68.532 235.615 69.5892 234.995 70.4457C234.164 71.0763 233.121 71.3608 232.084 71.2395H222.681C221.639 71.3599 220.591 71.0758 219.752 70.4457C219.118 69.5956 218.834 68.5349 218.958 67.4818V55.3792H221.605V69.0167H233.16V55.3792H235.771V67.4818Z" fill="white"/>
<path d="M262.852 68.0639C262.852 70.1281 261.388 71.169 258.459 71.169H246.639V55.2909H259.412C260.315 55.224 261.213 55.4735 261.953 55.9966C262.25 56.3091 262.476 56.6821 262.616 57.0901C262.756 57.498 262.807 57.9315 262.764 58.3607V60.2131C262.764 61.8009 261.882 62.7007 260.118 62.9124C260.508 62.9172 260.892 63.0039 261.247 63.1667C261.601 63.3294 261.917 63.5647 262.175 63.8574C262.433 64.15 262.626 64.4934 262.743 64.8655C262.86 65.2376 262.897 65.63 262.852 66.0174V68.0639ZM260.065 60.4778V58.8899C260.065 58.3077 259.941 57.9373 259.677 57.7609C259.312 57.5547 258.896 57.4567 258.477 57.4786H249.285V61.8715H258.477C259.518 61.8891 260.065 61.4305 260.065 60.4778ZM260.188 67.1818V65.8587C260.236 65.337 260.106 64.8144 259.818 64.3767C259.631 64.2133 259.412 64.0912 259.175 64.0182C258.938 63.9453 258.688 63.9232 258.442 63.9533H249.285V69.0519H258.477C258.722 69.0792 258.97 69.0573 259.206 68.9877C259.442 68.918 259.662 68.8018 259.853 68.6461C260.149 68.2179 260.286 67.7002 260.241 67.1818H260.188Z" fill="white"/>
<path d="M287.428 71.2394H272.785V55.3613H275.431V68.9988H287.428V71.2394Z" fill="white"/>
<path d="M298.102 71.2394H295.526V55.3613H298.172L298.102 71.2394Z" fill="white"/>
<path d="M326.594 71.2394H322.183L311.598 64.1825V71.2394H308.934V55.3613H311.58V62.1536L321.478 55.3613H325.341L313.856 62.9475L326.594 71.2394Z" fill="white"/>
<path d="M363.431 71.2394H348.047V55.3613H363.308V57.4784H350.693V61.9067H358.403V63.9884H350.693V69.0341H363.431V71.2394Z" fill="white"/>
<path d="M389.365 71.2394H385.502L379.256 64.5353L373.417 71.2923H370.065L377.739 63.1063L369.941 55.4319H373.752L379.309 61.4303L384.602 55.4319H387.901L380.844 62.8769L389.365 71.2394Z" fill="white"/>
<path d="M412.988 61.995C413.027 62.424 412.975 62.8565 412.836 63.2639C412.696 63.6714 412.471 64.0446 412.177 64.3591C411.438 64.8822 410.539 65.1317 409.636 65.0648H399.492V71.2396H396.846V55.3615H409.636C410.539 55.2946 411.438 55.5441 412.177 56.0672C412.471 56.3817 412.696 56.7549 412.836 57.1623C412.975 57.5698 413.027 58.0023 412.988 58.4313V61.995ZM410.307 61.307V59.1017C410.332 58.8692 410.31 58.6341 410.244 58.41C410.177 58.1858 410.066 57.9772 409.918 57.7961C409.535 57.5216 409.065 57.3963 408.595 57.4433H399.492V62.9653H408.595C409.065 63.021 409.539 62.8948 409.918 62.6125C410.066 62.4315 410.177 62.2228 410.244 61.9987C410.31 61.7746 410.332 61.5395 410.307 61.307Z" fill="white"/>
<path d="M439.769 71.2396H435.835L429.396 65.0648H424.72V71.2396H422.074V55.3615H434.9C435.803 55.2946 436.701 55.5441 437.44 56.0672C437.738 56.3797 437.964 56.7527 438.104 57.1607C438.244 57.5686 438.295 58.0021 438.252 58.4313V61.9597C438.346 62.5703 438.22 63.1943 437.897 63.7208C437.574 64.2473 437.074 64.6423 436.488 64.8355C435.215 65.0208 433.927 65.0857 432.642 65.0295L439.769 71.2396ZM435.535 61.3775V59.0664C435.576 58.6086 435.437 58.1528 435.147 57.7961C434.755 57.5247 434.281 57.3998 433.806 57.4433H424.72V63.0006H433.806C434.278 63.0478 434.752 62.9293 435.147 62.6654C435.441 62.3042 435.581 61.8412 435.535 61.3775Z" fill="white"/>
<path d="M463.48 71.2394H448.096V55.3613H463.357V57.4784H450.778V61.9067H458.488V63.9884H450.778V69.0341H463.516L463.48 71.2394Z" fill="white"/>
<path d="M488.374 67.4817C488.494 68.532 488.217 69.5892 487.597 70.4456C486.766 71.0763 485.723 71.3607 484.686 71.2395H475.477C474.924 71.3166 474.361 71.2712 473.828 71.1066C473.294 70.942 472.803 70.6621 472.39 70.2869C471.861 69.298 471.64 68.1737 471.755 67.0583L474.207 66.4761V69.0166H486.063V64.2532H476.112C474.348 64.2532 473.237 63.8121 472.796 62.9123C472.457 61.6843 472.332 60.4073 472.425 59.1369C472.301 58.0891 472.572 57.0326 473.184 56.173C474.021 55.5413 475.07 55.2569 476.112 55.3791H484.545C485.598 55.255 486.659 55.5391 487.509 56.173C488.117 57.0545 488.387 58.1257 488.268 59.1899L485.992 59.8426V57.4785H474.789V61.9068H484.775C485.811 61.7855 486.854 62.07 487.686 62.7006C488.298 63.5538 488.574 64.6028 488.462 65.6469L488.374 67.4817Z" fill="white"/>
</g>
<defs>
<linearGradient id="paint0_linear_128_336" x1="86.306" y1="76.5851" x2="129.23" y2="76.5851" gradientUnits="userSpaceOnUse">
<stop offset="0.04" stop-color="#996200"/>
<stop offset="0.06" stop-color="#9D6805"/>
<stop offset="0.3" stop-color="#CCAC42"/>
<stop offset="0.47" stop-color="#E9D768"/>
<stop offset="0.56" stop-color="#F4E776"/>
<stop offset="0.64" stop-color="#F0E071"/>
<stop offset="0.76" stop-color="#E4CD63"/>
<stop offset="0.9" stop-color="#D1AF4D"/>
<stop offset="1" stop-color="#C0943A"/>
</linearGradient>
<linearGradient id="paint1_linear_128_336" x1="83.7126" y1="71.9452" x2="126.813" y2="79.549" gradientUnits="userSpaceOnUse">
<stop stop-color="#B9B9B9"/>
<stop offset="0.2" stop-color="#A6A6A6"/>
<stop offset="0.73" stop-color="#767676"/>
<stop offset="1" stop-color="#646464"/>
</linearGradient>
<clipPath id="clip0_128_336">
<rect width="500" height="153.206" fill="white"/>
</clipPath>
</defs>
</svg>
