<svg width="1094" height="156" viewBox="0 0 1094 156" fill="none" xmlns="http://www.w3.org/2000/svg">
<path d="M14.064 55.288C12.864 55.336 11.592 55.24 10.248 55C8.904 54.808 7.608 54.376 6.36 53.704C5.16 52.984 4.176 51.904 3.408 50.464C2.64 49.024 2.256 47.056 2.256 44.56V13.024C2.256 10.192 2.808 7.96 3.912 6.328C5.016 4.696 6.408 3.568 8.088 2.944C9.768 2.272 11.496 1.936 13.272 1.936C17.928 1.984 22.056 2.08 25.656 2.224C29.256 2.368 32.592 2.512 35.664 2.656V8.632H15.216C13.44 8.632 12.048 9.088 11.04 10C10.032 10.912 9.528 12.352 9.528 14.32V25.336L32.424 25.768V31.384L9.528 31.888V42.76C9.528 44.392 9.792 45.616 10.32 46.432C10.896 47.248 11.616 47.8 12.48 48.088C13.392 48.376 14.352 48.52 15.36 48.52H35.664V54.496C32.352 54.736 28.8 54.928 25.008 55.072C21.216 55.216 17.568 55.288 14.064 55.288ZM57.9727 55.432C56.6288 55.432 54.9488 55.384 52.9328 55.288C50.9648 55.192 49.0688 55.048 47.2448 54.856C45.4208 54.664 44.0528 54.448 43.1408 54.208V49.888H59.3408C61.4048 49.888 63.0368 49.6 64.2368 49.024C65.4848 48.448 66.1088 47.104 66.1088 44.992V43.408C66.1088 41.968 65.6288 40.84 64.6688 40.024C63.7088 39.208 62.1248 38.8 59.9168 38.8H54.3008C52.0448 38.8 50.0288 38.512 48.2528 37.936C46.5248 37.312 45.1568 36.28 44.1488 34.84C43.1888 33.4 42.7088 31.456 42.7088 29.008V26.92C42.7088 23.272 43.7648 20.56 45.8768 18.784C48.0368 17.008 51.6848 16.12 56.8208 16.12C58.2608 16.12 59.8688 16.192 61.6448 16.336C63.4208 16.432 65.1248 16.576 66.7568 16.768C68.4368 16.96 69.7808 17.176 70.7888 17.416V21.736H55.5248C53.4128 21.736 51.7808 22.096 50.6288 22.816C49.5247 23.536 48.9727 24.904 48.9727 26.92V28.36C48.9727 30.28 49.5488 31.504 50.7008 32.032C51.9008 32.56 53.5088 32.824 55.5248 32.824H61.2848C64.8848 32.824 67.6208 33.688 69.4928 35.416C71.4128 37.096 72.3728 39.472 72.3728 42.544V45.496C72.3728 48.088 71.7728 50.104 70.5728 51.544C69.4208 52.984 67.7648 53.992 65.6048 54.568C63.4448 55.144 60.9008 55.432 57.9727 55.432ZM93.8991 55C89.9631 55 87.0591 54.04 85.1871 52.12C83.3631 50.2 82.4991 46.888 82.5951 42.184L82.8831 22.384H76.7631V17.704L83.0271 16.48L84.1071 5.68H89.7951V16.48H100.235V22.384H89.7951V42.112C89.7951 44.08 90.0591 45.568 90.5871 46.576C91.1151 47.536 91.7871 48.208 92.6031 48.592C93.4191 48.928 94.2111 49.144 94.9791 49.24L99.7311 49.672V55H93.8991ZM115.213 55.432C112.381 55.432 110.029 54.592 108.157 52.912C106.333 51.184 105.421 48.808 105.421 45.784V42.76C105.421 39.784 106.429 37.36 108.445 35.488C110.509 33.568 113.605 32.608 117.733 32.608H129.757V28.576C129.757 27.088 129.493 25.84 128.965 24.832C128.485 23.776 127.549 22.984 126.157 22.456C124.813 21.928 122.845 21.664 120.253 21.664H108.445V17.416C110.173 17.032 112.189 16.696 114.493 16.408C116.845 16.12 119.581 15.952 122.701 15.904C127.453 15.904 131.029 16.84 133.429 18.712C135.829 20.536 137.029 23.656 137.029 28.072V55H131.341L130.117 50.68C129.877 50.92 129.277 51.304 128.317 51.832C127.405 52.312 126.229 52.84 124.789 53.416C123.397 53.944 121.861 54.424 120.181 54.856C118.549 55.24 116.893 55.432 115.213 55.432ZM118.525 50.176C119.485 50.224 120.565 50.104 121.765 49.816C123.013 49.528 124.237 49.216 125.437 48.88C126.637 48.496 127.645 48.16 128.461 47.872C129.277 47.536 129.709 47.344 129.757 47.296V36.208L119.677 36.64C117.181 36.784 115.381 37.432 114.277 38.584C113.221 39.688 112.693 41.104 112.693 42.832V44.56C112.693 46.672 113.293 48.136 114.493 48.952C115.741 49.768 117.085 50.176 118.525 50.176ZM166.397 55.432C163.709 55.432 161.333 54.976 159.269 54.064C157.205 53.152 155.453 52.192 154.013 51.184L152.717 55H146.813V0.0639992H154.013V19.72C155.789 18.712 157.757 17.848 159.917 17.128C162.125 16.36 164.165 15.976 166.037 15.976C170.789 15.976 174.269 17.512 176.477 20.584C178.685 23.608 179.789 28.768 179.789 36.064C179.789 42.208 178.733 46.984 176.621 50.392C174.509 53.752 171.101 55.432 166.397 55.432ZM163.877 49.456C166.661 49.456 168.797 48.376 170.285 46.216C171.821 44.056 172.589 40.552 172.589 35.704C172.589 31.816 172.205 28.888 171.437 26.92C170.669 24.904 169.613 23.56 168.269 22.888C166.973 22.216 165.509 21.88 163.877 21.88C161.957 21.88 160.205 22.168 158.621 22.744C157.085 23.272 155.549 23.944 154.013 24.76V46.72C155.309 47.392 156.749 48.016 158.333 48.592C159.965 49.168 161.813 49.456 163.877 49.456ZM199.307 55.072C195.755 55.072 193.067 54.136 191.243 52.264C189.467 50.392 188.579 47.176 188.579 42.616V0.0639992H195.779V41.68C195.779 44.704 196.211 46.72 197.075 47.728C197.939 48.688 199.163 49.264 200.747 49.456L204.347 49.888V55.072H199.307ZM211.173 10C210.309 10 209.877 9.592 209.877 8.776V2.728C209.877 1.864 210.309 1.432 211.173 1.432H216.501C217.269 1.432 217.653 1.864 217.653 2.728V8.776C217.653 9.592 217.269 10 216.501 10H211.173ZM210.165 55V16.48H217.365V55H210.165ZM240.926 55.432C239.582 55.432 237.902 55.384 235.886 55.288C233.918 55.192 232.022 55.048 230.198 54.856C228.374 54.664 227.006 54.448 226.094 54.208V49.888H242.294C244.358 49.888 245.99 49.6 247.19 49.024C248.438 48.448 249.062 47.104 249.062 44.992V43.408C249.062 41.968 248.582 40.84 247.622 40.024C246.662 39.208 245.078 38.8 242.87 38.8H237.254C234.998 38.8 232.982 38.512 231.206 37.936C229.478 37.312 228.11 36.28 227.102 34.84C226.142 33.4 225.662 31.456 225.662 29.008V26.92C225.662 23.272 226.718 20.56 228.83 18.784C230.99 17.008 234.638 16.12 239.774 16.12C241.214 16.12 242.822 16.192 244.598 16.336C246.374 16.432 248.078 16.576 249.71 16.768C251.39 16.96 252.734 17.176 253.742 17.416V21.736H238.478C236.366 21.736 234.734 22.096 233.582 22.816C232.478 23.536 231.926 24.904 231.926 26.92V28.36C231.926 30.28 232.502 31.504 233.654 32.032C234.854 32.56 236.462 32.824 238.478 32.824H244.238C247.838 32.824 250.574 33.688 252.446 35.416C254.366 37.096 255.326 39.472 255.326 42.544V45.496C255.326 48.088 254.726 50.104 253.526 51.544C252.374 52.984 250.718 53.992 248.558 54.568C246.398 55.144 243.854 55.432 240.926 55.432ZM263.532 55V0.0639992H270.732V20.656C272.364 19.408 274.38 18.304 276.78 17.344C279.228 16.336 281.724 15.832 284.268 15.832C287.052 15.832 289.308 16.432 291.036 17.632C292.812 18.784 294.108 20.344 294.924 22.312C295.74 24.28 296.148 26.512 296.148 29.008V55H288.948V29.872C288.948 27.616 288.276 25.816 286.932 24.472C285.636 23.08 283.884 22.384 281.676 22.384C279.516 22.384 277.596 22.696 275.916 23.32C274.236 23.944 272.508 24.784 270.732 25.84V55H263.532ZM321.193 55.432C317.113 55.432 313.849 54.832 311.401 53.632C309.001 52.432 307.273 50.416 306.217 47.584C305.209 44.704 304.705 40.744 304.705 35.704C304.705 30.568 305.209 26.584 306.217 23.752C307.273 20.872 309.001 18.856 311.401 17.704C313.801 16.552 317.041 15.976 321.121 15.976C324.625 15.976 327.481 16.36 329.689 17.128C331.897 17.896 333.505 19.216 334.513 21.088C335.569 22.96 336.097 25.552 336.097 28.864C336.097 32.464 335.065 34.984 333.001 36.424C330.937 37.816 328.153 38.512 324.649 38.512H311.905C311.953 41.296 312.265 43.528 312.841 45.208C313.465 46.84 314.545 48.04 316.081 48.808C317.665 49.528 319.969 49.888 322.993 49.888H335.017V54.208C332.953 54.496 330.841 54.76 328.681 55C326.569 55.288 324.073 55.432 321.193 55.432ZM311.833 33.976H324.001C325.921 33.976 327.337 33.616 328.249 32.896C329.161 32.128 329.617 30.808 329.617 28.936C329.617 26.008 328.969 24.016 327.673 22.96C326.377 21.856 324.193 21.304 321.121 21.304C318.721 21.304 316.849 21.664 315.505 22.384C314.161 23.104 313.201 24.4 312.625 26.272C312.097 28.096 311.833 30.664 311.833 33.976ZM357.412 55.432C352.756 55.432 349.276 53.896 346.972 50.824C344.716 47.752 343.588 42.832 343.588 36.064C343.588 31.312 344.044 27.472 344.956 24.544C345.916 21.568 347.452 19.408 349.564 18.064C351.676 16.672 354.532 15.976 358.132 15.976C360.148 15.976 362.14 16.192 364.108 16.624C366.076 17.056 367.828 17.536 369.364 18.064V0.0639992H376.564V55H370.66L369.364 51.184C368.596 51.856 367.54 52.528 366.196 53.2C364.852 53.824 363.412 54.352 361.876 54.784C360.34 55.216 358.852 55.432 357.412 55.432ZM359.716 49.528C361.684 49.528 363.46 49.216 365.044 48.592C366.676 47.968 368.116 47.32 369.364 46.648V23.248C367.876 22.816 366.412 22.432 364.972 22.096C363.58 21.712 362.02 21.52 360.292 21.52C357.988 21.52 356.14 21.928 354.748 22.744C353.404 23.56 352.42 25 351.796 27.064C351.172 29.128 350.86 32.008 350.86 35.704C350.86 40.84 351.532 44.44 352.876 46.504C354.22 48.52 356.5 49.528 359.716 49.528ZM418.954 55C415.018 55 412.114 54.04 410.242 52.12C408.418 50.2 407.554 46.888 407.65 42.184L407.938 22.384H401.818V17.704L408.082 16.48L409.162 5.68H414.85V16.48H425.29V22.384H414.85V42.112C414.85 44.08 415.114 45.568 415.642 46.576C416.17 47.536 416.842 48.208 417.658 48.592C418.474 48.928 419.266 49.144 420.034 49.24L424.786 49.672V55H418.954ZM448.259 55.432C444.323 55.432 441.107 54.88 438.611 53.776C436.115 52.624 434.267 50.632 433.067 47.8C431.867 44.92 431.267 40.888 431.267 35.704C431.267 30.328 431.867 26.224 433.067 23.392C434.315 20.56 436.187 18.616 438.683 17.56C441.179 16.504 444.371 15.976 448.259 15.976C452.099 15.976 455.267 16.528 457.763 17.632C460.307 18.688 462.179 20.632 463.379 23.464C464.627 26.296 465.251 30.376 465.251 35.704C465.251 40.984 464.651 45.04 463.451 47.872C462.251 50.704 460.403 52.672 457.907 53.776C455.411 54.88 452.195 55.432 448.259 55.432ZM448.259 49.528C449.843 49.528 451.235 49.384 452.435 49.096C453.683 48.808 454.715 48.208 455.531 47.296C456.395 46.336 457.019 44.944 457.403 43.12C457.835 41.248 458.051 38.752 458.051 35.632C458.051 32.56 457.835 30.112 457.403 28.288C457.019 26.416 456.395 25.024 455.531 24.112C454.715 23.2 453.683 22.6 452.435 22.312C451.235 21.976 449.843 21.808 448.259 21.808C446.627 21.808 445.187 21.976 443.939 22.312C442.739 22.6 441.731 23.2 440.915 24.112C440.099 25.024 439.499 26.416 439.115 28.288C438.731 30.112 438.539 32.56 438.539 35.632C438.539 38.752 438.731 41.248 439.115 43.12C439.499 44.944 440.099 46.336 440.915 47.296C441.731 48.208 442.739 48.808 443.939 49.096C445.187 49.384 446.627 49.528 448.259 49.528ZM506.707 55.432C505.363 55.432 503.683 55.384 501.667 55.288C499.699 55.192 497.803 55.048 495.979 54.856C494.155 54.664 492.787 54.448 491.875 54.208V49.888H508.075C510.139 49.888 511.771 49.6 512.971 49.024C514.219 48.448 514.843 47.104 514.843 44.992V43.408C514.843 41.968 514.363 40.84 513.403 40.024C512.443 39.208 510.859 38.8 508.651 38.8H503.035C500.779 38.8 498.763 38.512 496.987 37.936C495.259 37.312 493.891 36.28 492.883 34.84C491.923 33.4 491.443 31.456 491.443 29.008V26.92C491.443 23.272 492.499 20.56 494.611 18.784C496.771 17.008 500.419 16.12 505.555 16.12C506.995 16.12 508.603 16.192 510.379 16.336C512.155 16.432 513.859 16.576 515.491 16.768C517.171 16.96 518.515 17.176 519.523 17.416V21.736H504.259C502.147 21.736 500.515 22.096 499.363 22.816C498.259 23.536 497.707 24.904 497.707 26.92V28.36C497.707 30.28 498.283 31.504 499.435 32.032C500.635 32.56 502.243 32.824 504.259 32.824H510.019C513.619 32.824 516.355 33.688 518.227 35.416C520.147 37.096 521.107 39.472 521.107 42.544V45.496C521.107 48.088 520.507 50.104 519.307 51.544C518.155 52.984 516.499 53.992 514.339 54.568C512.179 55.144 509.635 55.432 506.707 55.432ZM542.633 55C538.697 55 535.793 54.04 533.921 52.12C532.097 50.2 531.233 46.888 531.329 42.184L531.617 22.384H525.497V17.704L531.761 16.48L532.841 5.68H538.529V16.48H548.969V22.384H538.529V42.112C538.529 44.08 538.793 45.568 539.321 46.576C539.849 47.536 540.521 48.208 541.337 48.592C542.153 48.928 542.945 49.144 543.713 49.24L548.465 49.672V55H542.633ZM556.243 55V16.48H561.787L563.443 22.96C565.075 20.992 566.899 19.336 568.915 17.992C570.931 16.648 573.283 15.976 575.971 15.976C577.315 15.976 578.467 16.12 579.427 16.408V23.824C578.755 23.728 578.035 23.656 577.267 23.608C576.547 23.512 575.827 23.464 575.107 23.464C572.659 23.464 570.547 23.92 568.771 24.832C567.043 25.696 565.267 26.992 563.443 28.72V55H556.243ZM601.388 55.432C597.308 55.432 594.044 54.832 591.596 53.632C589.196 52.432 587.468 50.416 586.412 47.584C585.404 44.704 584.9 40.744 584.9 35.704C584.9 30.568 585.404 26.584 586.412 23.752C587.468 20.872 589.196 18.856 591.596 17.704C593.996 16.552 597.236 15.976 601.316 15.976C604.82 15.976 607.676 16.36 609.884 17.128C612.092 17.896 613.7 19.216 614.708 21.088C615.764 22.96 616.292 25.552 616.292 28.864C616.292 32.464 615.26 34.984 613.196 36.424C611.132 37.816 608.348 38.512 604.844 38.512H592.1C592.148 41.296 592.46 43.528 593.036 45.208C593.66 46.84 594.74 48.04 596.276 48.808C597.86 49.528 600.164 49.888 603.188 49.888H615.212V54.208C613.148 54.496 611.036 54.76 608.876 55C606.764 55.288 604.268 55.432 601.388 55.432ZM592.028 33.976H604.196C606.116 33.976 607.532 33.616 608.444 32.896C609.356 32.128 609.812 30.808 609.812 28.936C609.812 26.008 609.164 24.016 607.868 22.96C606.572 21.856 604.388 21.304 601.316 21.304C598.916 21.304 597.044 21.664 595.7 22.384C594.356 23.104 593.396 24.4 592.82 26.272C592.292 28.096 592.028 30.664 592.028 33.976ZM625.079 55V16.48H630.839L632.279 20.656C633.959 19.408 635.999 18.304 638.399 17.344C640.799 16.336 643.271 15.832 645.815 15.832C648.695 15.832 650.999 16.456 652.727 17.704C654.503 18.904 655.775 20.512 656.543 22.528C657.311 24.544 657.695 26.728 657.695 29.08V55H650.495V29.944C650.495 27.688 649.847 25.864 648.551 24.472C647.255 23.08 645.479 22.384 643.223 22.384C641.063 22.384 639.143 22.696 637.463 23.32C635.783 23.944 634.055 24.784 632.279 25.84V55H625.079ZM677.124 72.712C673.428 72.712 670.38 71.92 667.98 70.336C665.628 68.752 664.452 66.4 664.452 63.28V61.696C664.452 59.584 665.052 57.784 666.252 56.296C667.452 54.856 668.916 53.752 670.644 52.984C668.148 51.688 666.9 49.72 666.9 47.08C666.9 45.16 667.452 43.624 668.556 42.472C669.708 41.272 671.316 40.456 673.38 40.024C670.788 38.872 669.012 37.264 668.052 35.2C667.14 33.136 666.684 31.024 666.684 28.864C666.684 24.496 668.004 21.328 670.644 19.36C673.332 17.392 677.076 16.408 681.876 16.408H702.612V20.512L694.764 21.304C695.34 21.736 695.964 22.312 696.636 23.032C697.308 23.704 697.884 24.64 698.364 25.84C698.844 27.04 699.084 28.624 699.084 30.592C699.084 32.656 698.628 34.576 697.716 36.352C696.852 38.128 695.412 39.568 693.396 40.672C691.428 41.776 688.74 42.328 685.332 42.328H678.996C677.172 42.328 675.732 42.592 674.676 43.12C673.62 43.648 673.092 44.584 673.092 45.928C673.092 47.032 673.5 47.8 674.316 48.232C675.132 48.664 675.996 48.88 676.908 48.88H689.076C693.492 48.88 696.828 49.744 699.084 51.472C701.34 53.2 702.468 55.96 702.468 59.752V61.12C702.468 64.768 701.268 67.6 698.868 69.616C696.516 71.68 692.94 72.712 688.14 72.712H677.124ZM680.292 36.784H684.54C686.652 36.784 688.284 36.472 689.436 35.848C690.588 35.176 691.38 34.312 691.812 33.256C692.244 32.152 692.46 30.976 692.46 29.728C692.46 26.848 691.788 24.832 690.444 23.68C689.1 22.528 687.3 21.952 685.044 21.952H681.012C678.564 21.952 676.644 22.504 675.252 23.608C673.908 24.712 673.236 26.608 673.236 29.296C673.236 31.936 673.86 33.856 675.108 35.056C676.356 36.208 678.084 36.784 680.292 36.784ZM678.996 67.528H687.42C689.964 67.528 691.98 67.024 693.468 66.016C694.956 65.056 695.7 63.544 695.7 61.48V60.112C695.7 58.384 695.124 56.992 693.972 55.936C692.868 54.928 690.876 54.424 687.996 54.424H678.708C676.74 54.424 675.012 54.904 673.524 55.864C672.036 56.824 671.292 58.336 671.292 60.4V61.768C671.292 63.784 671.964 65.248 673.308 66.16C674.7 67.072 676.596 67.528 678.996 67.528ZM723.196 55C719.26 55 716.356 54.04 714.484 52.12C712.66 50.2 711.796 46.888 711.892 42.184L712.18 22.384H706.06V17.704L712.324 16.48L713.404 5.68H719.092V16.48H729.532V22.384H719.092V42.112C719.092 44.08 719.356 45.568 719.884 46.576C720.412 47.536 721.084 48.208 721.9 48.592C722.716 48.928 723.508 49.144 724.276 49.24L729.028 49.672V55H723.196ZM736.806 55V0.0639992H744.006V20.656C745.638 19.408 747.654 18.304 750.054 17.344C752.502 16.336 754.998 15.832 757.542 15.832C760.326 15.832 762.582 16.432 764.31 17.632C766.086 18.784 767.382 20.344 768.198 22.312C769.014 24.28 769.422 26.512 769.422 29.008V55H762.222V29.872C762.222 27.616 761.55 25.816 760.206 24.472C758.91 23.08 757.158 22.384 754.95 22.384C752.79 22.384 750.87 22.696 749.19 23.32C747.51 23.944 745.782 24.784 744.006 25.84V55H736.806ZM794.466 55.432C790.386 55.432 787.122 54.832 784.674 53.632C782.274 52.432 780.546 50.416 779.49 47.584C778.482 44.704 777.978 40.744 777.978 35.704C777.978 30.568 778.482 26.584 779.49 23.752C780.546 20.872 782.274 18.856 784.674 17.704C787.074 16.552 790.314 15.976 794.394 15.976C797.898 15.976 800.754 16.36 802.962 17.128C805.17 17.896 806.778 19.216 807.786 21.088C808.842 22.96 809.37 25.552 809.37 28.864C809.37 32.464 808.338 34.984 806.274 36.424C804.21 37.816 801.426 38.512 797.922 38.512H785.178C785.226 41.296 785.538 43.528 786.114 45.208C786.738 46.84 787.818 48.04 789.354 48.808C790.938 49.528 793.242 49.888 796.266 49.888H808.29V54.208C806.226 54.496 804.114 54.76 801.954 55C799.842 55.288 797.346 55.432 794.466 55.432ZM785.106 33.976H797.274C799.194 33.976 800.61 33.616 801.522 32.896C802.434 32.128 802.89 30.808 802.89 28.936C802.89 26.008 802.242 24.016 800.946 22.96C799.65 21.856 797.466 21.304 794.394 21.304C791.994 21.304 790.122 21.664 788.778 22.384C787.434 23.104 786.474 24.4 785.898 26.272C785.37 28.096 785.106 30.664 785.106 33.976ZM818.157 55V16.48H823.917L825.357 20.656C827.037 19.408 829.077 18.304 831.477 17.344C833.877 16.336 836.349 15.832 838.893 15.832C841.773 15.832 844.077 16.456 845.805 17.704C847.581 18.904 848.853 20.512 849.621 22.528C850.389 24.544 850.773 26.728 850.773 29.08V55H843.573V29.944C843.573 27.688 842.925 25.864 841.629 24.472C840.333 23.08 838.557 22.384 836.301 22.384C834.141 22.384 832.221 22.696 830.541 23.32C828.861 23.944 827.133 24.784 825.357 25.84V55H818.157ZM16.296 91.32V141H0.816V91.32H16.296ZM35.1088 105L36.4768 110.328C38.8288 108.168 41.2768 106.584 43.8208 105.576C46.4128 104.52 48.9088 103.992 51.3088 103.992C58.4128 103.992 61.9648 107.352 61.9648 114.072V141H46.8448V118.896C46.8448 118.08 46.6528 117.528 46.2688 117.24C45.8848 116.904 45.2128 116.736 44.2528 116.736C43.4848 116.736 42.6448 116.784 41.7328 116.88C40.8208 116.976 39.6928 117.216 38.3488 117.6V141H23.2288V105H35.1088ZM80.5476 103.992C82.6116 103.992 84.5796 104.232 86.4516 104.712C88.3716 105.144 90.0756 105.912 91.5636 107.016C91.4676 105.768 91.3956 104.472 91.3476 103.128C91.2996 101.784 91.2756 100.464 91.2756 99.168V90.6H106.396V141H94.3716L93.1476 135.096C92.0916 137.064 90.5076 138.696 88.3956 139.992C86.2836 141.24 83.4516 141.864 79.8996 141.864C75.1956 141.864 71.8356 140.184 69.8196 136.824C67.8516 133.416 66.8676 128.664 66.8676 122.568C66.8676 117.624 67.3716 113.832 68.3796 111.192C69.4356 108.504 70.9716 106.632 72.9876 105.576C75.0516 104.52 77.5716 103.992 80.5476 103.992ZM82.4196 122.424C82.4196 124.632 82.5396 126.264 82.7796 127.32C83.0676 128.328 83.4996 129 84.0756 129.336C84.6516 129.624 85.4196 129.768 86.3796 129.768C87.5316 129.768 88.4676 129.672 89.1876 129.48C89.9556 129.288 90.6516 129.024 91.2756 128.688V114.792C90.6516 114.552 89.9796 114.336 89.2596 114.144C88.5396 113.952 87.6516 113.856 86.5956 113.856C85.5876 113.856 84.7716 114.048 84.1476 114.432C83.5716 114.768 83.1396 115.536 82.8516 116.736C82.5636 117.936 82.4196 119.832 82.4196 122.424ZM131.532 103.992C136.428 103.992 140.34 104.616 143.268 105.864C146.244 107.064 148.38 109.056 149.676 111.84C150.972 114.624 151.62 118.368 151.62 123.072C151.62 127.68 150.972 131.352 149.676 134.088C148.38 136.824 146.244 138.816 143.268 140.064C140.34 141.264 136.428 141.864 131.532 141.864C126.636 141.864 122.7 141.264 119.724 140.064C116.796 138.816 114.66 136.824 113.316 134.088C112.02 131.352 111.372 127.68 111.372 123.072C111.372 118.368 112.02 114.624 113.316 111.84C114.66 109.056 116.796 107.064 119.724 105.864C122.7 104.616 126.636 103.992 131.532 103.992ZM131.532 114.216C130.38 114.216 129.492 114.456 128.868 114.936C128.244 115.368 127.812 116.208 127.572 117.456C127.332 118.704 127.212 120.576 127.212 123.072C127.212 125.472 127.332 127.296 127.572 128.544C127.812 129.744 128.244 130.56 128.868 130.992C129.492 131.424 130.38 131.64 131.532 131.64C132.684 131.64 133.572 131.424 134.196 130.992C134.82 130.56 135.228 129.744 135.42 128.544C135.66 127.296 135.78 125.472 135.78 123.072C135.78 120.576 135.66 118.704 135.42 117.456C135.228 116.208 134.82 115.368 134.196 114.936C133.572 114.456 132.684 114.216 131.532 114.216ZM168.492 105L169.86 110.328C172.212 108.168 174.66 106.584 177.204 105.576C179.796 104.52 182.292 103.992 184.692 103.992C191.796 103.992 195.348 107.352 195.348 114.072V141H180.228V118.896C180.228 118.08 180.036 117.528 179.652 117.24C179.268 116.904 178.596 116.736 177.636 116.736C176.868 116.736 176.028 116.784 175.116 116.88C174.204 116.976 173.076 117.216 171.732 117.6V141H156.612V105H168.492ZM220.482 103.992C227.25 103.992 232.05 105.072 234.882 107.232C237.714 109.392 239.154 112.584 239.202 116.808C239.25 120.168 238.242 122.592 236.178 124.08C234.162 125.568 230.514 126.312 225.234 126.312H216.234C216.522 127.8 217.098 128.832 217.962 129.408C218.874 129.984 220.29 130.272 222.21 130.272C223.65 130.272 225.666 130.224 228.258 130.128C230.898 130.032 233.754 129.816 236.826 129.48L238.194 138.552C235.65 139.848 232.89 140.712 229.914 141.144C226.938 141.624 223.818 141.864 220.554 141.864C215.562 141.864 211.554 141.168 208.53 139.776C205.506 138.384 203.322 136.32 201.978 133.584C200.682 130.8 200.034 127.368 200.034 123.288C200.034 118.536 200.706 114.768 202.05 111.984C203.394 109.152 205.554 107.112 208.53 105.864C211.554 104.616 215.538 103.992 220.482 103.992ZM220.914 113.712C219.09 113.664 217.818 113.952 217.098 114.576C216.426 115.2 216.042 116.736 215.946 119.184H220.986C222.618 119.184 223.65 119.04 224.082 118.752C224.514 118.416 224.73 117.648 224.73 116.448C224.73 115.296 224.442 114.552 223.866 114.216C223.29 113.88 222.306 113.712 220.914 113.712ZM259.135 103.992C261.055 103.992 263.143 104.064 265.399 104.208C267.703 104.352 269.935 104.544 272.095 104.784C274.255 104.976 276.079 105.24 277.567 105.576L276.631 114.36H262.447C260.047 114.36 258.535 114.384 257.911 114.432C257.335 114.48 257.047 114.744 257.047 115.224C257.047 115.608 257.311 115.872 257.839 116.016C258.415 116.16 259.567 116.472 261.295 116.952L269.575 119.04C272.791 119.952 275.167 121.224 276.703 122.856C278.287 124.44 279.079 126.792 279.079 129.912C279.079 132.936 278.503 135.312 277.351 137.04C276.199 138.768 274.327 139.992 271.735 140.712C269.191 141.432 265.831 141.792 261.655 141.792C259.927 141.792 257.359 141.696 253.951 141.504C250.591 141.36 246.919 140.952 242.935 140.28L243.871 131.496H256.687C258.991 131.496 260.695 131.496 261.799 131.496C262.903 131.448 263.623 131.352 263.959 131.208C264.295 131.016 264.463 130.752 264.463 130.416C264.463 129.984 264.151 129.696 263.527 129.552C262.903 129.36 261.655 129 259.783 128.472L251.863 126.312C249.223 125.544 247.231 124.608 245.887 123.504C244.543 122.352 243.631 121.032 243.151 119.544C242.671 118.056 242.431 116.376 242.431 114.504C242.431 112.296 242.935 110.424 243.943 108.888C244.999 107.304 246.727 106.104 249.127 105.288C251.575 104.424 254.911 103.992 259.135 103.992ZM294.612 88.512C297.54 88.512 299.004 90 299.004 92.976V96.648C299.004 99.624 297.54 101.112 294.612 101.112H288.204C285.276 101.112 283.812 99.624 283.812 96.648V92.976C283.812 90 285.276 88.512 288.204 88.512H294.612ZM298.932 105V141H283.884V105H298.932ZM326.273 103.992C329.681 103.992 332.537 104.448 334.841 105.36C337.193 106.224 338.969 107.736 340.169 109.896C341.417 112.008 342.041 114.936 342.041 118.68V141H330.017L328.649 135.96C327.449 137.496 325.841 138.888 323.825 140.136C321.809 141.384 319.265 142.008 316.193 142.008C313.985 142.008 311.921 141.624 310.001 140.856C308.129 140.088 306.617 138.96 305.465 137.472C304.361 135.936 303.809 134.04 303.809 131.784V128.184C303.809 125.304 304.865 123.048 306.977 121.416C309.137 119.736 312.041 118.896 315.689 118.896H326.921V118.608C326.873 117.36 326.537 116.448 325.913 115.872C325.337 115.296 324.257 115.008 322.673 115.008C320.801 115.008 318.497 115.032 315.761 115.08C313.073 115.128 310.193 115.224 307.121 115.368L305.753 105.792C307.577 105.456 309.737 105.168 312.233 104.928C314.777 104.64 317.297 104.424 319.793 104.28C322.289 104.088 324.449 103.992 326.273 103.992ZM321.521 131.784C322.385 131.784 323.273 131.616 324.185 131.28C325.097 130.944 326.009 130.512 326.921 129.984V126.168H321.233C320.321 126.168 319.625 126.384 319.145 126.816C318.713 127.2 318.497 127.728 318.497 128.4V129.552C318.497 130.176 318.737 130.704 319.217 131.136C319.745 131.568 320.513 131.784 321.521 131.784ZM359.742 105L361.11 110.328C363.462 108.168 365.91 106.584 368.454 105.576C371.046 104.52 373.542 103.992 375.942 103.992C383.046 103.992 386.598 107.352 386.598 114.072V141H371.478V118.896C371.478 118.08 371.286 117.528 370.902 117.24C370.518 116.904 369.846 116.736 368.886 116.736C368.118 116.736 367.278 116.784 366.366 116.88C365.454 116.976 364.326 117.216 362.982 117.6V141H347.862V105H359.742ZM429.586 90.6C433.858 90.6 437.458 91.008 440.386 91.824C443.362 92.592 445.762 93.936 447.586 95.856C449.41 97.728 450.73 100.32 451.546 103.632C452.362 106.944 452.77 111.12 452.77 116.16C452.77 121.2 452.362 125.376 451.546 128.688C450.73 132 449.41 134.616 447.586 136.536C445.762 138.408 443.362 139.752 440.386 140.568C437.458 141.336 433.858 141.72 429.586 141.72C425.458 141.72 421.666 141.648 418.21 141.504C414.754 141.36 411.466 141.192 408.346 141V91.32C411.514 91.128 414.778 90.96 418.138 90.816C421.546 90.672 425.362 90.6 429.586 90.6ZM429.586 101.904C428.578 101.904 427.594 101.904 426.634 101.904C425.722 101.904 424.834 101.904 423.97 101.904V130.344C425.698 130.392 427.57 130.416 429.586 130.416C431.362 130.416 432.73 130.032 433.69 129.264C434.65 128.496 435.322 127.08 435.706 125.016C436.09 122.952 436.282 120 436.282 116.16C436.282 112.32 436.09 109.368 435.706 107.304C435.322 105.24 434.65 103.824 433.69 103.056C432.73 102.288 431.362 101.904 429.586 101.904ZM477.334 103.992C484.102 103.992 488.902 105.072 491.734 107.232C494.566 109.392 496.006 112.584 496.054 116.808C496.102 120.168 495.094 122.592 493.03 124.08C491.014 125.568 487.366 126.312 482.086 126.312H473.086C473.374 127.8 473.95 128.832 474.814 129.408C475.726 129.984 477.142 130.272 479.062 130.272C480.502 130.272 482.518 130.224 485.11 130.128C487.75 130.032 490.606 129.816 493.678 129.48L495.046 138.552C492.502 139.848 489.742 140.712 486.766 141.144C483.79 141.624 480.67 141.864 477.406 141.864C472.414 141.864 468.406 141.168 465.382 139.776C462.358 138.384 460.174 136.32 458.83 133.584C457.534 130.8 456.886 127.368 456.886 123.288C456.886 118.536 457.558 114.768 458.902 111.984C460.246 109.152 462.406 107.112 465.382 105.864C468.406 104.616 472.39 103.992 477.334 103.992ZM477.766 113.712C475.942 113.664 474.67 113.952 473.95 114.576C473.278 115.2 472.894 116.736 472.798 119.184H477.838C479.47 119.184 480.502 119.04 480.934 118.752C481.366 118.416 481.582 117.648 481.582 116.448C481.582 115.296 481.294 114.552 480.718 114.216C480.142 113.88 479.158 113.712 477.766 113.712ZM527.939 105V114.072H519.371V141H504.179V114.072H498.131V105.36L504.179 105V100.608C504.179 98.352 504.587 96.336 505.403 94.56C506.267 92.784 507.659 91.392 509.579 90.384C511.547 89.376 514.163 88.872 517.427 88.872C518.387 88.872 519.659 88.92 521.243 89.016C522.875 89.064 524.531 89.16 526.211 89.304C527.939 89.448 529.403 89.64 530.603 89.88L529.163 98.952H522.827C521.483 98.952 520.571 99.24 520.091 99.816C519.611 100.344 519.371 101.304 519.371 102.696V105H527.939ZM550.248 103.992C557.016 103.992 561.816 105.072 564.648 107.232C567.48 109.392 568.92 112.584 568.968 116.808C569.016 120.168 568.008 122.592 565.944 124.08C563.928 125.568 560.28 126.312 555 126.312H546C546.288 127.8 546.864 128.832 547.728 129.408C548.64 129.984 550.056 130.272 551.976 130.272C553.416 130.272 555.432 130.224 558.024 130.128C560.664 130.032 563.52 129.816 566.592 129.48L567.96 138.552C565.416 139.848 562.656 140.712 559.68 141.144C556.704 141.624 553.584 141.864 550.32 141.864C545.328 141.864 541.32 141.168 538.296 139.776C535.272 138.384 533.088 136.32 531.744 133.584C530.448 130.8 529.8 127.368 529.8 123.288C529.8 118.536 530.472 114.768 531.816 111.984C533.16 109.152 535.32 107.112 538.296 105.864C541.32 104.616 545.304 103.992 550.248 103.992ZM550.68 113.712C548.856 113.664 547.584 113.952 546.864 114.576C546.192 115.2 545.808 116.736 545.712 119.184H550.752C552.384 119.184 553.416 119.04 553.848 118.752C554.28 118.416 554.496 117.648 554.496 116.448C554.496 115.296 554.208 114.552 553.632 114.216C553.056 113.88 552.072 113.712 550.68 113.712ZM585.445 105L586.813 110.328C589.165 108.168 591.613 106.584 594.157 105.576C596.749 104.52 599.245 103.992 601.645 103.992C608.749 103.992 612.301 107.352 612.301 114.072V141H597.181V118.896C597.181 118.08 596.989 117.528 596.605 117.24C596.221 116.904 595.549 116.736 594.589 116.736C593.821 116.736 592.981 116.784 592.069 116.88C591.157 116.976 590.029 117.216 588.685 117.6V141H573.565V105H585.445ZM633.62 103.992C635.54 103.992 637.628 104.064 639.884 104.208C642.188 104.352 644.42 104.544 646.58 104.784C648.74 104.976 650.564 105.24 652.052 105.576L651.116 114.36H636.932C634.532 114.36 633.02 114.384 632.396 114.432C631.82 114.48 631.532 114.744 631.532 115.224C631.532 115.608 631.796 115.872 632.324 116.016C632.9 116.16 634.052 116.472 635.78 116.952L644.06 119.04C647.276 119.952 649.652 121.224 651.188 122.856C652.772 124.44 653.564 126.792 653.564 129.912C653.564 132.936 652.988 135.312 651.836 137.04C650.684 138.768 648.812 139.992 646.22 140.712C643.676 141.432 640.316 141.792 636.14 141.792C634.412 141.792 631.844 141.696 628.436 141.504C625.076 141.36 621.404 140.952 617.42 140.28L618.356 131.496H631.172C633.476 131.496 635.18 131.496 636.284 131.496C637.388 131.448 638.108 131.352 638.444 131.208C638.78 131.016 638.948 130.752 638.948 130.416C638.948 129.984 638.636 129.696 638.012 129.552C637.388 129.36 636.14 129 634.268 128.472L626.348 126.312C623.708 125.544 621.716 124.608 620.372 123.504C619.028 122.352 618.116 121.032 617.636 119.544C617.156 118.056 616.916 116.376 616.916 114.504C616.916 112.296 617.42 110.424 618.428 108.888C619.484 107.304 621.212 106.104 623.612 105.288C626.06 104.424 629.396 103.992 633.62 103.992ZM677.232 103.992C684 103.992 688.8 105.072 691.632 107.232C694.464 109.392 695.904 112.584 695.952 116.808C696 120.168 694.992 122.592 692.928 124.08C690.912 125.568 687.264 126.312 681.984 126.312H672.984C673.272 127.8 673.848 128.832 674.712 129.408C675.624 129.984 677.04 130.272 678.96 130.272C680.4 130.272 682.416 130.224 685.008 130.128C687.648 130.032 690.504 129.816 693.576 129.48L694.944 138.552C692.4 139.848 689.64 140.712 686.664 141.144C683.688 141.624 680.568 141.864 677.304 141.864C672.312 141.864 668.304 141.168 665.28 139.776C662.256 138.384 660.072 136.32 658.728 133.584C657.432 130.8 656.784 127.368 656.784 123.288C656.784 118.536 657.456 114.768 658.8 111.984C660.144 109.152 662.304 107.112 665.28 105.864C668.304 104.616 672.288 103.992 677.232 103.992ZM677.664 113.712C675.84 113.664 674.568 113.952 673.848 114.576C673.176 115.2 672.792 116.736 672.696 119.184H677.736C679.368 119.184 680.4 119.04 680.832 118.752C681.264 118.416 681.48 117.648 681.48 116.448C681.48 115.296 681.192 114.552 680.616 114.216C680.04 113.88 679.056 113.712 677.664 113.712ZM734.818 103.992C741.586 103.992 746.386 105.072 749.218 107.232C752.05 109.392 753.49 112.584 753.538 116.808C753.586 120.168 752.578 122.592 750.514 124.08C748.498 125.568 744.85 126.312 739.57 126.312H730.57C730.858 127.8 731.434 128.832 732.298 129.408C733.21 129.984 734.626 130.272 736.546 130.272C737.986 130.272 740.002 130.224 742.594 130.128C745.234 130.032 748.09 129.816 751.162 129.48L752.53 138.552C749.986 139.848 747.226 140.712 744.25 141.144C741.274 141.624 738.154 141.864 734.89 141.864C729.898 141.864 725.89 141.168 722.866 139.776C719.842 138.384 717.658 136.32 716.314 133.584C715.018 130.8 714.37 127.368 714.37 123.288C714.37 118.536 715.042 114.768 716.386 111.984C717.73 109.152 719.89 107.112 722.866 105.864C725.89 104.616 729.874 103.992 734.818 103.992ZM735.25 113.712C733.426 113.664 732.154 113.952 731.434 114.576C730.762 115.2 730.378 116.736 730.282 119.184H735.322C736.954 119.184 737.986 119.04 738.418 118.752C738.85 118.416 739.066 117.648 739.066 116.448C739.066 115.296 738.778 114.552 738.202 114.216C737.626 113.88 736.642 113.712 735.25 113.712ZM776.207 103.992C777.695 103.992 779.327 104.064 781.103 104.208C782.879 104.352 784.655 104.616 786.431 105C788.207 105.384 789.815 105.936 791.255 106.656L789.743 116.016H778.799C776.495 116.016 774.911 116.472 774.047 117.384C773.183 118.296 772.751 120.144 772.751 122.928C772.751 125.712 773.183 127.584 774.047 128.544C774.911 129.456 776.495 129.912 778.799 129.912C780.047 129.912 781.727 129.888 783.839 129.84C785.951 129.792 788.135 129.648 790.391 129.408L791.759 138.84C789.647 139.944 787.199 140.712 784.415 141.144C781.631 141.624 778.847 141.864 776.063 141.864C771.359 141.864 767.591 141.264 764.759 140.064C761.975 138.816 759.959 136.8 758.711 134.016C757.511 131.232 756.911 127.536 756.911 122.928C756.911 118.272 757.535 114.576 758.783 111.84C760.031 109.056 762.071 107.064 764.903 105.864C767.735 104.616 771.503 103.992 776.207 103.992ZM814.759 103.992C819.655 103.992 823.567 104.616 826.495 105.864C829.471 107.064 831.607 109.056 832.903 111.84C834.199 114.624 834.847 118.368 834.847 123.072C834.847 127.68 834.199 131.352 832.903 134.088C831.607 136.824 829.471 138.816 826.495 140.064C823.567 141.264 819.655 141.864 814.759 141.864C809.863 141.864 805.927 141.264 802.951 140.064C800.023 138.816 797.887 136.824 796.543 134.088C795.247 131.352 794.599 127.68 794.599 123.072C794.599 118.368 795.247 114.624 796.543 111.84C797.887 109.056 800.023 107.064 802.951 105.864C805.927 104.616 809.863 103.992 814.759 103.992ZM814.759 114.216C813.607 114.216 812.719 114.456 812.095 114.936C811.471 115.368 811.039 116.208 810.799 117.456C810.559 118.704 810.439 120.576 810.439 123.072C810.439 125.472 810.559 127.296 810.799 128.544C811.039 129.744 811.471 130.56 812.095 130.992C812.719 131.424 813.607 131.64 814.759 131.64C815.911 131.64 816.799 131.424 817.423 130.992C818.047 130.56 818.455 129.744 818.647 128.544C818.887 127.296 819.007 125.472 819.007 123.072C819.007 120.576 818.887 118.704 818.647 117.456C818.455 116.208 818.047 115.368 817.423 114.936C816.799 114.456 815.911 114.216 814.759 114.216ZM855.174 103.992C857.094 103.992 859.182 104.064 861.438 104.208C863.742 104.352 865.974 104.544 868.134 104.784C870.294 104.976 872.118 105.24 873.606 105.576L872.67 114.36H858.486C856.086 114.36 854.574 114.384 853.95 114.432C853.374 114.48 853.086 114.744 853.086 115.224C853.086 115.608 853.35 115.872 853.878 116.016C854.454 116.16 855.606 116.472 857.334 116.952L865.614 119.04C868.83 119.952 871.206 121.224 872.742 122.856C874.326 124.44 875.118 126.792 875.118 129.912C875.118 132.936 874.542 135.312 873.39 137.04C872.238 138.768 870.366 139.992 867.774 140.712C865.23 141.432 861.87 141.792 857.694 141.792C855.966 141.792 853.398 141.696 849.99 141.504C846.63 141.36 842.958 140.952 838.974 140.28L839.91 131.496H852.726C855.03 131.496 856.734 131.496 857.838 131.496C858.942 131.448 859.662 131.352 859.998 131.208C860.334 131.016 860.502 130.752 860.502 130.416C860.502 129.984 860.19 129.696 859.566 129.552C858.942 129.36 857.694 129 855.822 128.472L847.902 126.312C845.262 125.544 843.27 124.608 841.926 123.504C840.582 122.352 839.67 121.032 839.19 119.544C838.71 118.056 838.47 116.376 838.47 114.504C838.47 112.296 838.974 110.424 839.982 108.888C841.038 107.304 842.766 106.104 845.166 105.288C847.614 104.424 850.95 103.992 855.174 103.992ZM891.957 105L896.205 124.872C896.397 125.976 896.565 127.104 896.709 128.256C896.853 129.408 896.997 130.536 897.141 131.64H897.789C898.125 130.488 898.413 129.312 898.653 128.112C898.893 126.864 899.109 125.784 899.301 124.872L903.549 105H919.605L908.157 139.992C907.533 141.96 906.621 144 905.421 146.112C904.269 148.224 902.733 150.096 900.813 151.728C898.941 153.408 896.637 154.584 893.901 155.256C891.165 155.976 887.925 155.952 884.181 155.184L883.173 147.048C885.909 146.472 888.117 145.728 889.797 144.816C891.477 143.952 892.797 142.68 893.757 141H891.309C890.157 141 889.149 140.688 888.285 140.064C887.469 139.392 886.893 138.528 886.557 137.472L875.901 105H891.957ZM937.37 103.992C939.29 103.992 941.378 104.064 943.634 104.208C945.938 104.352 948.17 104.544 950.33 104.784C952.49 104.976 954.314 105.24 955.802 105.576L954.866 114.36H940.682C938.282 114.36 936.77 114.384 936.146 114.432C935.57 114.48 935.282 114.744 935.282 115.224C935.282 115.608 935.546 115.872 936.074 116.016C936.65 116.16 937.802 116.472 939.53 116.952L947.81 119.04C951.026 119.952 953.402 121.224 954.938 122.856C956.522 124.44 957.314 126.792 957.314 129.912C957.314 132.936 956.738 135.312 955.586 137.04C954.434 138.768 952.562 139.992 949.97 140.712C947.426 141.432 944.066 141.792 939.89 141.792C938.162 141.792 935.594 141.696 932.186 141.504C928.826 141.36 925.154 140.952 921.17 140.28L922.106 131.496H934.922C937.226 131.496 938.93 131.496 940.034 131.496C941.138 131.448 941.858 131.352 942.194 131.208C942.53 131.016 942.698 130.752 942.698 130.416C942.698 129.984 942.386 129.696 941.762 129.552C941.138 129.36 939.89 129 938.018 128.472L930.098 126.312C927.458 125.544 925.466 124.608 924.122 123.504C922.778 122.352 921.866 121.032 921.386 119.544C920.906 118.056 920.666 116.376 920.666 114.504C920.666 112.296 921.17 110.424 922.178 108.888C923.234 107.304 924.962 106.104 927.362 105.288C929.81 104.424 933.146 103.992 937.37 103.992ZM989.406 105V114.072H980.694V127.896C980.694 128.808 980.934 129.48 981.414 129.912C981.894 130.296 982.686 130.488 983.79 130.488H987.606L989.262 140.136C988.254 140.568 987.006 140.904 985.518 141.144C984.03 141.432 982.518 141.648 980.982 141.792C979.494 141.936 978.174 142.008 977.022 142.008C973.518 142.008 970.734 141.12 968.67 139.344C966.606 137.568 965.574 135.096 965.574 131.928V114.072H959.454V105.36L965.502 105.072V95.568H980.694V105H989.406ZM1012.55 103.992C1019.32 103.992 1024.12 105.072 1026.95 107.232C1029.78 109.392 1031.22 112.584 1031.27 116.808C1031.32 120.168 1030.31 122.592 1028.25 124.08C1026.23 125.568 1022.58 126.312 1017.3 126.312H1008.3C1008.59 127.8 1009.17 128.832 1010.03 129.408C1010.94 129.984 1012.36 130.272 1014.28 130.272C1015.72 130.272 1017.74 130.224 1020.33 130.128C1022.97 130.032 1025.82 129.816 1028.9 129.48L1030.26 138.552C1027.72 139.848 1024.96 140.712 1021.98 141.144C1019.01 141.624 1015.89 141.864 1012.62 141.864C1007.63 141.864 1003.62 141.168 1000.6 139.776C997.577 138.384 995.393 136.32 994.049 133.584C992.753 130.8 992.105 127.368 992.105 123.288C992.105 118.536 992.777 114.768 994.121 111.984C995.465 109.152 997.625 107.112 1000.6 105.864C1003.62 104.616 1007.61 103.992 1012.55 103.992ZM1012.98 113.712C1011.16 113.664 1009.89 113.952 1009.17 114.576C1008.5 115.2 1008.11 116.736 1008.02 119.184H1013.06C1014.69 119.184 1015.72 119.04 1016.15 118.752C1016.58 118.416 1016.8 117.648 1016.8 116.448C1016.8 115.296 1016.51 114.552 1015.94 114.216C1015.36 113.88 1014.38 113.712 1012.98 113.712ZM1047.68 105L1048.97 110.256C1050.99 108.144 1052.98 106.584 1054.95 105.576C1056.92 104.52 1059.22 103.992 1061.86 103.992C1066.71 103.992 1069.83 105.768 1071.22 109.32C1073.05 107.544 1074.89 106.224 1076.77 105.36C1078.69 104.448 1080.85 103.992 1083.25 103.992C1090.16 103.992 1093.61 107.352 1093.61 114.072V141H1078.57V118.896C1078.57 118.08 1078.4 117.528 1078.06 117.24C1077.73 116.904 1077.1 116.736 1076.19 116.736C1075.66 116.736 1075.09 116.784 1074.46 116.88C1073.84 116.976 1073.02 117.216 1072.01 117.6V141H1057.47V118.896C1057.47 117.456 1056.65 116.736 1055.02 116.736C1054.45 116.736 1053.87 116.784 1053.29 116.88C1052.72 116.976 1051.93 117.192 1050.92 117.528V141H1035.87V105H1047.68Z" fill="#282855"/>
</svg>
